<?xml version="1.0" encoding="UTF-8" standalone="no"?>
<svg
   xmlns:dc="http://purl.org/dc/elements/1.1/"
   xmlns:cc="http://creativecommons.org/ns#"
   xmlns:rdf="http://www.w3.org/1999/02/22-rdf-syntax-ns#"
   xmlns:svg="http://www.w3.org/2000/svg"
   xmlns="http://www.w3.org/2000/svg"
   xmlns:sodipodi="http://sodipodi.sourceforge.net/DTD/sodipodi-0.dtd"
   xmlns:inkscape="http://www.inkscape.org/namespaces/inkscape"
   viewBox="0 0 3733.3333 2666.6667"
   height="2666.6667"
   width="3733.3333"
   xml:space="preserve"
   id="svg2"
   version="1.1"
   sodipodi:docname="banner-img.svg"
   inkscape:version="1.0.1 (3bc2e813f5, 2020-09-07)"><sodipodi:namedview
     pagecolor="#ffffff"
     bordercolor="#666666"
     borderopacity="1"
     objecttolerance="10"
     gridtolerance="10"
     guidetolerance="10"
     inkscape:pageopacity="0"
     inkscape:pageshadow="2"
     inkscape:window-width="1366"
     inkscape:window-height="745"
     id="namedview471"
     showgrid="false"
     inkscape:zoom="0.19553572"
     inkscape:cx="1866.6666"
     inkscape:cy="1333.3334"
     inkscape:window-x="-8"
     inkscape:window-y="-8"
     inkscape:window-maximized="1"
     inkscape:current-layer="g12" /><metadata
     id="metadata8"><rdf:RDF><cc:Work
         rdf:about=""><dc:format>image/svg+xml</dc:format><dc:type
           rdf:resource="http://purl.org/dc/dcmitype/StillImage" /></cc:Work></rdf:RDF></metadata><defs
     id="defs6" /><g
     transform="matrix(1.3333333,0,0,-1.3333333,0,2666.6667)"
     id="g10"><g
       transform="scale(0.1)"
       id="g12"><g
         transform="scale(1.08713)"
         id="g18"><path
           id="path20"
           style="fill:#d4deff;fill-opacity:1;fill-rule:nonzero;stroke:none"
           d="m 6663,15749.8 c 166.72,-378.5 -4.98,-820.5 -383.49,-987.2 -378.5,-166.8 -820.51,4.9 -987.23,383.5 -166.71,378.5 4.98,820.5 383.49,987.2 378.52,166.7 820.51,-5 987.23,-383.5" /></g><g
         transform="scale(1.06701)"
         id="g22"><path
           id="path24"
           style="fill:#ffffff;fill-opacity:1;fill-rule:nonzero;stroke:none"
           d="m 6283.65,15178.8 -58.57,133 c -76.97,-32.3 -166.42,-43.4 -227.01,-30.8 l -7.25,102.2 c 61.32,-10.7 140.81,-5.6 214.57,26.9 93.49,41.2 132.92,123 99.85,198.1 -31.9,72.4 -102.97,94.5 -217.82,91.1 -157.52,-6.5 -267.17,17.6 -317.63,132.1 -48.14,109.3 -6.99,226.5 105.46,299.6 l -58.58,133 81.65,36 56.26,-127.7 c 80.17,32.1 143.44,34.8 191.49,29.3 l 5.37,-101.4 c -34.63,3.6 -101.37,8.8 -185.65,-28.3 -101.4,-44.7 -112.91,-122.1 -89.71,-174.8 30.17,-68.4 93.97,-81.2 229.41,-78.2 160.01,4.5 258.65,-33.9 310.26,-151.1 45.83,-104 16.33,-233.3 -109.45,-315.5 l 60.31,-136.9 -82.96,-36.6" /></g><path
         id="path26"
         style="fill:#d4deff;fill-opacity:1;fill-rule:nonzero;stroke:none"
         d="m 4141.73,12547.3 -686.85,771.4 c 0,0 252.63,541.4 994.35,560.7 459.77,11.9 865.88,475.4 865.88,475.4 l 690.48,-775.5 c 0,0 -446.79,-635.6 -972.6,-640.3 -556.09,-5.1 -891.26,-391.7 -891.26,-391.7" /><path
         id="path28"
         style="fill:#e3eaff;fill-opacity:1;fill-rule:nonzero;stroke:none"
         d="m 5123.16,13612.1 c 72.03,-198.7 -57.5,-427.9 -289.31,-511.9 -231.81,-84 -478.12,8.9 -550.14,207.6 -72.03,198.7 57.5,427.9 289.3,511.9 231.82,84.1 478.13,-8.9 550.15,-207.6" /><g
         transform="scale(1.57178)"
         id="g30"><path
           id="path32"
           style="fill:#d4deff;fill-opacity:1;fill-rule:nonzero;stroke:none"
           d="m 16300,7424.19 -211.3,622.24 c 0,0 -378.9,30.16 -622.4,-374.26 -150.9,-250.7 -534.9,-329.96 -534.9,-329.96 l 212.5,-625.53 c 0,0 491.9,47.76 659.6,337.24 177.3,306.16 496.5,370.27 496.5,370.27" /></g><g
         transform="scale(1.53532)"
         id="g34"><path
           id="path36"
           style="fill:#e3eaff;fill-opacity:1;fill-rule:nonzero;stroke:none"
           d="m 15768.4,7386.67 c 89.5,-104.66 260.9,-104.93 383,-0.6 122.2,104.32 148.6,273.74 59.2,378.39 -89.5,104.66 -260.9,104.93 -383,0.6 -122.1,-104.32 -148.6,-273.73 -59.2,-378.39" /></g><g
         transform="scale(1.69541)"
         id="g38"><path
           id="path40"
           style="fill:#e3eaff;fill-opacity:1;fill-rule:nonzero;stroke:none"
           d="m 14910.6,580.51 c 684.3,1091.53 1389.4,1964.71 1315.7,3512.01 -63.1,1325.99 -1560,1708.91 -1957.4,2273.15 -486.5,690.52 84.1,1999.53 -778.8,3178.2 C 12545,10834.7 11031,10806.3 9785.71,10154.3 8876.31,9678.14 7942.68,9514.19 7028.44,9796.44 5483.33,10273.5 3366.15,10406.8 3155.68,8512.53 3009.31,7195.3 2292.71,6786.62 1156.14,5902.61 -377.008,4710.18 789.691,2352.76 1380.71,686.679 L 14910.6,580.51" /></g><g
         transform="scale(1.55829)"
         id="g42"><path
           id="path44"
           style="fill:#95a6db;fill-opacity:1;fill-rule:nonzero;stroke:none"
           d="M 16222.6,631.59 H 661.999 c -42.73,0 -77.365,34.651 -77.365,77.326 v 14.759 c 0,42.74 34.635,77.394 77.365,77.394 H 16222.6 c 42.7,0 77.4,-34.654 77.4,-77.394 v -14.759 c 0,-42.675 -34.7,-77.326 -77.4,-77.326" /></g><g
         transform="scale(1.00252)"
         id="g46"><path
           id="path48"
           style="fill:#ffffff;fill-opacity:1;fill-rule:nonzero;stroke:none"
           d="m 16171.7,10932.9 c 128.3,-435.6 -120.9,-892.6 -556.4,-1020.83 -435.5,-128.18 -892.5,120.93 -1020.7,556.43 -128.3,435.5 120.8,892.5 556.4,1020.8 435.5,128.2 892.4,-120.9 1020.7,-556.4" /></g><path
         id="path50"
         style="fill:#e3eaff;fill-opacity:1;fill-rule:nonzero;stroke:none"
         d="m 15551.3,10100.6 -44.3,150.6 c -86.9,-23.9 -184.3,-23.4 -247.4,-1.5 l 6.3,110.4 c 64.3,-20 150.1,-25.5 233.6,-0.9 105.9,31.2 159.4,113.4 134.4,198.3 -24.1,82.1 -97.2,115.6 -220.7,127.9 -169.6,14.8 -283.7,55.8 -321.9,185.5 -36.5,123.7 23.8,243.5 154.4,306.3 l -44.3,150.6 92.4,27.2 42.6,-144.6 c 90.3,23.3 158.5,17.5 209.2,4.9 l -8.3,-109.4 c -36.6,8.7 -107.4,23.5 -202.8,-4.6 -114.8,-33.8 -137.8,-115.1 -120.3,-174.8 22.8,-77.5 89.4,-100 234.9,-115.5 172,-17.4 272.4,-72.1 311.5,-204.8 34.6,-117.8 -14.9,-252.3 -161,-322.8 l 45.7,-155.1 -94,-27.7" /><path
         id="path52"
         style="fill:#3f964f;fill-opacity:1;fill-rule:nonzero;stroke:none"
         d="M 14364.5,9011.4 13369.6,8306.1 10241,6088.2 9917.02,5858.6 10163.6,5507.7 11531.7,3561 13924,5260.3 l 1218,865.2 14.3,10.1 123.4,1573.5 -915.2,1302.3" /><path
         id="path54"
         style="fill:#4ead60;fill-opacity:1;fill-rule:nonzero;stroke:none"
         d="m 15094.8,7150.1 -619.5,881.4 c -213.5,-150.1 -508.4,-98.7 -658.5,114.9 L 10916.4,6081 c 150.2,-213.6 98.7,-508.5 -114.9,-658.7 l 619.4,-881.3 c 213.6,150 508.5,98.6 658.6,-114.9 l 2900.3,2065.4 c -150.1,213.6 -98.7,508.5 115,658.6" /><path
         id="path56"
         style="fill:#3f964f;fill-opacity:1;fill-rule:nonzero;stroke:none"
         d="m 13720.7,6797.9 c -249.2,354.6 -738.7,440.1 -1093.3,190.9 -354.6,-249.2 -440,-738.7 -190.8,-1093.3 249.2,-354.6 738.7,-440.1 1093.3,-190.9 354.6,249.2 440,738.7 190.8,1093.3" /><path
         id="path58"
         style="fill:#3f964f;fill-opacity:1;fill-rule:nonzero;stroke:none"
         d="m 15279.7,7709.1 -885.7,-847 748,-736.6 12.6,-12.4 1.8,22.5 123.3,1573.5" /><path
         id="path60"
         style="fill:#32783f;fill-opacity:1;fill-rule:nonzero;stroke:none"
         d="m 14829.5,5905.9 -164.5,361.3 193.3,137.7 283.7,-279.4 -312.5,-219.6" /><path
         id="path62"
         style="fill:#3e8a4d;fill-opacity:1;fill-rule:nonzero;stroke:none"
         d="m 14665,6267.2 -271,594.9 464.3,-457.2 -193.3,-137.7" /><path
         id="path64"
         style="fill:#32783f;fill-opacity:1;fill-rule:nonzero;stroke:none"
         d="m 14934.1,7378.6 -37,52.7 321.9,364.2 60.7,-86.4 -345.6,-330.5" /><path
         id="path66"
         style="fill:#3e8a4d;fill-opacity:1;fill-rule:nonzero;stroke:none"
         d="m 14394,6862.1 503.1,569.2 37,-52.7 -540.1,-516.5" /><path
         id="path68"
         style="fill:#32783f;fill-opacity:1;fill-rule:nonzero;stroke:none"
         d="m 14394,6862.1 v 0 l 540.1,516.5 345.6,330.5 -885.7,-847" /><path
         id="path70"
         style="fill:#32783f;fill-opacity:1;fill-rule:nonzero;stroke:none"
         d="m 13739.7,5129.4 -106.4,403.2 184.3,131.2 106.4,-403.5 -184.3,-130.9 m -610.3,2527.5 70.5,528.9 169.7,120.3 -70.4,-528.3 -169.8,-120.9" /><path
         id="path72"
         style="fill:#3e8a4d;fill-opacity:1;fill-rule:nonzero;stroke:none"
         d="m 13633.3,5532.6 -7,26.4 v 0 c -14.3,54.2 -54,99.1 -113.7,133.8 5.8,3.9 11.6,7.8 17.3,11.8 62,43.6 115.8,94.6 161,150.9 58.2,-34.6 96.9,-78.9 111,-132.3 l 15.7,-59.4 -184.3,-131.2 m -421.7,1587.5 c -44.1,7.6 -88.8,11.4 -133.6,11.4 -6.2,0 -12.4,-0.1 -18.6,-0.2 l 70,525.6 169.8,120.9 -87.6,-657.7" /><path
         id="path74"
         style="fill:#32783f;fill-opacity:1;fill-rule:nonzero;stroke:none"
         d="m 13512.6,5692.8 c -97,56.5 -246.8,86.3 -426.1,86.3 -66,0 -136.1,-4 -209,-12.2 l 181.9,1364.4 c 6.2,0.1 12.4,0.2 18.6,0.2 44.8,0 89.5,-3.8 133.6,-11.4 l -158.5,-1189 c 72.9,8.2 142.9,12.2 209,12.2 181,0 331.9,-30.3 428.8,-87.8 -45.2,-56.3 -99,-107.3 -161,-150.9 -5.7,-4 -11.5,-7.9 -17.3,-11.8" /><path
         id="path76"
         style="fill:#3f964f;fill-opacity:1;fill-rule:nonzero;stroke:none"
         d="m 10596.2,9906.1 -866.42,-6500 2783.62,-371 866.4,6500 -2783.6,371" /><path
         id="path78"
         style="fill:#4ead60;fill-opacity:1;fill-rule:nonzero;stroke:none"
         d="m 12459.4,9180.8 -1067.8,142.3 c -34.5,-258.8 -272.3,-440.6 -531,-406.1 l -616.7,-4625.5 c 258.9,-34.5 440.7,-272.3 406.2,-531.1 L 11718,3618.1 c 34.5,258.8 272.2,440.6 531,406.1 l 616.6,4625.5 c -258.8,34.5 -440.7,272.3 -406.2,531.1" /><path
         id="path80"
         style="fill:#3f964f;fill-opacity:1;fill-rule:nonzero;stroke:none"
         d="m 11709.6,7220.3 c -429.6,57.2 -824.3,-244.6 -881.6,-674.2 -57.3,-429.6 244.6,-824.3 674.2,-881.6 429.6,-57.3 824.3,244.6 881.6,674.2 57.3,429.6 -244.6,824.3 -674.2,881.6" /><path
         id="path82"
         style="fill:#3f964f;fill-opacity:1;fill-rule:nonzero;stroke:none"
         d="m 12553.2,5706 -2674.64,-705.9 716.64,-2715.2 2674.6,705.9 -504.3,1910.8 c 534.3,143.1 919.1,436.5 860.8,657.4 -58.3,220.9 -537.8,286.2 -1073.1,147 v 0" /><path
         id="path84"
         style="fill:#4ead60;fill-opacity:1;fill-rule:nonzero;stroke:none"
         d="m 10616.1,4764.3 504.2,-1910.4 3006.4,793.5 -504.2,1910.4 -3006.4,-793.5" /><path
         id="path86"
         style="fill:#3f964f;fill-opacity:1;fill-rule:nonzero;stroke:none"
         d="m 12019.4,4837.9 c -374.3,-98.7 -597.7,-482.3 -498.9,-856.6 98.8,-374.3 482.3,-597.7 856.7,-498.9 374.3,98.8 597.6,482.4 498.9,856.7 -98.8,374.3 -482.4,597.7 -856.7,498.8" /><path
         id="path88"
         style="fill:#b6ddff;fill-opacity:1;fill-rule:nonzero;stroke:none"
         d="m 13269.8,2990.8 -106.2,402.4 963.1,254.2 -390.5,1479.5 3.5,2.5 497.1,-1883.4 -967,-255.2" /><path
         id="path90"
         style="fill:#286032;fill-opacity:1;fill-rule:nonzero;stroke:none"
         d="M 13736.2,5126.9 13632,5522 c -0.2,3.1 -0.4,6.1 -0.7,9.1 l 2,1.5 106.4,-403.2 -3.5,-2.5" /><path
         id="path92"
         style="fill:#326e3e;fill-opacity:1;fill-rule:nonzero;stroke:none"
         d="m 13631.3,5531.1 c -0.9,9.4 -2.6,18.7 -5,27.9 l 7,-26.4 -2,-1.5" /><path
         id="path94"
         style="fill:#32783f;fill-opacity:1;fill-rule:nonzero;stroke:none"
         d="m 12470.3,5684.1 v 0 l 82.9,21.9 -82.9,-21.9" /><path
         id="path96"
         style="fill:#3e8a4d;fill-opacity:1;fill-rule:nonzero;stroke:none"
         d="m 12279.2,5633.7 v 0 l 191.1,50.4 v 0 l -191.1,-50.4" /><path
         id="path98"
         style="fill:#32783f;fill-opacity:1;fill-rule:nonzero;stroke:none"
         d="m 12995.8,2918.5 -106.2,402.4 274,72.3 106.2,-402.4 -274,-72.3 m -610.4,2312.8 -106.2,402.4 191.1,50.4 82.9,21.9 v 0 c 190.3,49.5 373.5,73.1 533.3,73.1 289.7,0 502.2,-77.7 539.8,-220.1 v 0 c 2.4,-9.2 4.1,-18.5 5,-27.9 0.3,-3 0.5,-6 0.7,-9.1 l -9.5,35.8 -1237.1,-326.5" /><path
         id="path100"
         style="fill:#3e8a4d;fill-opacity:1;fill-rule:nonzero;stroke:none"
         d="m 12889.6,3320.9 -115.8,439 c 113.1,162.9 156.8,372.4 102.3,579.2 -54.6,206.7 -196.1,367.4 -374.8,453.2 l -115.9,439 1237.1,326.5 9.5,-35.8 104.2,-395.1 390.5,-1479.5 -963.1,-254.2 -274,-72.3" /><path
         id="path102"
         style="fill:#32783f;fill-opacity:1;fill-rule:nonzero;stroke:none"
         d="m 12773.8,3759.9 -272.5,1032.4 c 178.7,-85.8 320.2,-246.5 374.8,-453.2 54.5,-206.8 10.8,-416.3 -102.3,-579.2" /><path
         id="path104"
         style="fill:#3f964f;fill-opacity:1;fill-rule:nonzero;stroke:none"
         d="m 13626.3,5559 c 58.3,-220.9 -326.5,-514.3 -860.8,-657.4 l 716.6,-2715.3 0.1,0.1 c 534.3,143.1 919.1,436.4 860.7,657.4 L 13626.3,5559" /><path
         id="path106"
         style="fill:#4ead60;fill-opacity:1;fill-rule:nonzero;stroke:none"
         d="m 13755.6,5069 c 25.8,-97.7 -40.1,-207 -160.9,-291.9 35.8,-150.8 -47.6,-301.4 -189.1,-338.7 l -0.7,-0.2 362.4,-1372.8 0.6,0.2 c 130,34.3 264.4,-38.7 319,-166 122.6,85.1 189.7,195.4 163.7,293.8 l -495,1875.6" /><path
         id="path108"
         style="fill:#2c2858;fill-opacity:1;fill-rule:nonzero;stroke:none"
         d="M 10444.9,1255.5 6510,1253 c -620.62,-0.4 -1124.05,502.4 -1124.45,1123 l -6.1,9629.1 c -0.38,620.7 502.42,1124.1 1123.04,1124.5 l 3934.81,2.5 c 620.7,0.4 1124.1,-502.4 1124.5,-1123.1 l 6.1,-9629.1 c 0.4,-620.6 -502.4,-1124 -1123,-1124.4" /><path
         id="path110"
         style="fill:#95a6db;fill-opacity:1;fill-rule:nonzero;stroke:none"
         d="m 10485.4,1448 -4016.17,-2.6 c -436.42,-0.3 -790.44,353.3 -790.72,789.7 l -6.23,9840.1 c -0.27,436.4 353.3,790.4 789.73,790.7 l 4016.19,2.5 c 436.4,0.3 790.4,-353.3 790.7,-789.7 l 6.2,-9840 c 0.3,-436.4 -353.3,-790.5 -789.7,-790.7" /><path
         id="path112"
         style="fill:#2c2858;fill-opacity:1;fill-rule:nonzero;stroke:none"
         d="m 5343.06,9981.2 v 0 c -96.83,0 -175.34,78.5 -175.34,175.3 v 909.1 c 0,96.9 78.51,175.3 175.34,175.3 96.83,0 175.33,-78.4 175.33,-175.3 v -909.1 c 0,-96.8 -78.5,-175.3 -175.33,-175.3" /><path
         id="path114"
         style="fill:#2c2858;fill-opacity:1;fill-rule:nonzero;stroke:none"
         d="m 11595.5,9981.2 v 0 c -96.9,0 -175.4,78.5 -175.4,175.3 v 909.1 c 0,96.9 78.5,175.3 175.4,175.3 96.8,0 175.3,-78.4 175.3,-175.3 v -909.1 c 0,-96.8 -78.5,-175.3 -175.3,-175.3" /><g
         transform="scale(1.363)"
         id="g116"><path
           id="path118"
           style="fill:#2c2858;fill-opacity:1;fill-rule:nonzero;stroke:none"
           d="m 15475.7,921.13 -2886.8,-1.834 c -455.4,-0.293 -824.8,368.604 -825.1,823.914 l -4.4,7064.65 c -0.3,455.35 368.6,824.7 823.9,824.99 l 2886.9,1.83 c 455.3,0.29 824.7,-368.6 825,-823.95 l 4.5,-7064.65 c 0.3,-455.32 -368.6,-824.655 -824,-824.95" /></g><g
         transform="scale(1.34503)"
         id="g120"><path
           id="path122"
           style="fill:#95a6db;fill-opacity:1;fill-rule:nonzero;stroke:none"
           d="m 15712.7,1076.56 -2986,-1.94 c -324.5,-0.22 -587.6,262.67 -587.9,587.13 l -4.6,7315.85 c -0.2,324.46 262.7,587.68 587.1,587.88 l 2986,1.89 c 324.5,0.2 587.6,-262.67 587.9,-587.14 l 4.6,-7315.81 c 0.2,-324.45 -262.7,-587.72 -587.1,-587.86" /></g><path
         id="path124"
         style="fill:#2c2858;fill-opacity:1;fill-rule:nonzero;stroke:none"
         d="m 15991.6,9981.2 v 0 c -96.8,0 -175.3,78.5 -175.3,175.3 v 909.1 c 0,96.9 78.5,175.3 175.3,175.3 96.9,0 175.4,-78.4 175.4,-175.3 v -909.1 c 0,-96.8 -78.5,-175.3 -175.4,-175.3" /><g
         transform="scale(1.37542)"
         id="g126"><path
           id="path128"
           style="fill:#2c2858;fill-opacity:1;fill-rule:nonzero;stroke:none"
           d="m 16172.6,7256.82 v 0 c -70.5,0 -127.6,57.08 -127.6,127.48 v 660.95 c 0,70.41 57.1,127.47 127.6,127.47 70.3,0 127.4,-57.06 127.4,-127.47 V 7384.3 c 0,-70.4 -57.1,-127.48 -127.4,-127.48" /></g><path
         id="path130"
         style="fill:#2c2858;fill-opacity:1;fill-rule:nonzero;stroke:none"
         d="m 15991.6,8636.5 v 0 c -96.8,0 -175.3,78.5 -175.3,175.3 v 909.1 c 0,96.8 78.5,175.3 175.3,175.3 96.9,0 175.4,-78.5 175.4,-175.3 v -909.1 c 0,-96.8 -78.5,-175.3 -175.4,-175.3" /><path
         id="path132"
         style="fill:#0e6a41;fill-opacity:1;fill-rule:nonzero;stroke:none"
         d="m 3534.82,1867.4 c -132.21,-555.1 -604.78,-249.8 -505.95,-600.7 7.28,-25.9 31.86,-43.1 58.72,-44.2 l 277.49,-10.6 c 26.78,-1 53.17,6.6 75.28,21.8 146.39,100.2 245.72,241.4 561.91,258.5 -2.42,135 3.73,327.8 -40.87,396.7 l -426.58,-21.5" /><path
         id="path134"
         style="fill:#201d40;fill-opacity:1;fill-rule:nonzero;stroke:none"
         d="m 4266.09,5763.3 c 0,0 -807.03,-1230.9 -918.43,-1613.7 -111.41,-382.9 121.65,-1031.6 79.48,-2339.1 252.24,-65.5 588.55,-9.2 588.55,-9.2 0,0 202.42,1640 -35.67,2027.2 356.73,544.4 1252.79,1732.8 1252.79,1732.8 l -966.72,202" /><path
         id="path136"
         style="fill:#0e6a41;fill-opacity:1;fill-rule:nonzero;stroke:none"
         d="M 4713.65,1688.5 C 4508.3,1409 3995.74,1574.3 4016.29,1199.1 c 776.89,12.4 1099.83,10.7 1099.83,10.7 -1.85,86.2 -19.21,290.6 -37.9,370.6 l -364.57,108.1" /><path
         id="path138"
         style="fill:#2c2858;fill-opacity:1;fill-rule:nonzero;stroke:none"
         d="m 4472.93,6012.1 c 0,0 -257.34,-2008.1 -197.93,-2402.4 59.4,-394.3 243.45,-702.9 249.91,-2011 254.49,-56.1 643.41,-106.5 643.41,-106.5 0,0 163.99,1577.8 -173.32,2012.2 95.6,643.8 551.17,2263 551.17,2263 l -1073.24,244.7" /><path
         id="path140"
         style="fill:#c4204a;fill-opacity:1;fill-rule:nonzero;stroke:none"
         d="m 3154.57,6896.1 -313.73,351.8 c -6.83,7.6 -16.51,12.1 -26.72,12.2 l -258.33,1.6 c -7.36,0.1 -30.14,-40.8 -25.19,-46.2 l 221.29,-196.7 c 1.02,-1.1 2.32,-1.9 3.78,-2.4 l 379.51,-140.8 c 8.15,-2.4 25.08,14.2 19.39,20.5" /><path
         id="path142"
         style="fill:#e62552;fill-opacity:1;fill-rule:nonzero;stroke:none"
         d="m 3130.62,6872.6 -298.9,331.6 c -6.83,7.6 -16.51,12 -26.72,12.2 l -266.31,4.8 c -7.37,0.1 -11.33,-8.6 -6.38,-14 l 210.45,-232.1 c 1.03,-1.1 2.33,-1.9 3.79,-2.4 l 375.38,-113.8 c 8.14,-2.5 14.38,7.3 8.69,13.7" /><path
         id="path144"
         style="fill:#f37a50;fill-opacity:1;fill-rule:nonzero;stroke:none"
         d="M 3721.15,6570 3505,6676 c 0,0 -213.21,215.8 -244.87,264 -47.43,24 -137.17,84.4 -157.34,86.7 -20.18,2.4 -61.51,-3.9 -61.51,-3.9 L 3141.37,6909 c 0,0 -47.55,-9.5 -108.18,29.1 -60.64,38.5 -167.77,141.8 -220.24,121.8 -18.6,-16.5 -18.6,-16.5 -18.6,-16.5 0,0 -33.13,35.4 -64.36,22.2 -31.24,-13.1 30.86,-168.9 207.13,-334 11.68,-44.1 69.76,-121.3 69.76,-121.3 l 356.39,-125.2 357.88,84.9" /><path
         id="path146"
         style="fill:#c4204a;fill-opacity:1;fill-rule:nonzero;stroke:none"
         d="m 2783.04,7154.2 c 12.65,-12.7 30.86,-15 40.65,-5.2 9.79,9.8 7.46,28 -5.2,40.6 -12.66,12.7 -30.86,15 -40.65,5.2 -9.79,-9.7 -7.46,-27.9 5.2,-40.6" /><path
         id="path148"
         style="fill:#f37a50;fill-opacity:1;fill-rule:nonzero;stroke:none"
         d="m 4727.7,8159.5 c -64.14,-83.1 438.22,-173.5 505.56,-0.8 67.34,172.8 -48.3,648 -48.3,648 l -458.03,-97.3 c 0,0 84.24,-441.7 0.77,-549.9" /><path
         id="path150"
         style="fill:#f37a50;fill-opacity:1;fill-rule:nonzero;stroke:none"
         d="m 5285.13,9194.5 c 38.57,-367.4 -164.15,-689.9 -452.78,-720.2 -288.61,-30.3 -553.85,243.1 -592.41,610.6 -38.57,367.4 164.15,689.9 452.77,720.2 288.62,30.3 553.86,-243.1 592.42,-610.6" /><path
         id="path152"
         style="fill:#000000;fill-opacity:1;fill-rule:nonzero;stroke:none"
         d="m 4410.44,8976.7 c -10.21,-28.5 -41.53,-43.3 -69.97,-33 -28.43,10.2 -43.2,41.5 -32.99,69.9 10.2,28.5 41.52,43.2 69.96,33 28.43,-10.2 43.21,-41.5 33,-69.9" /><path
         id="path154"
         style="fill:#000000;fill-opacity:1;fill-rule:nonzero;stroke:none"
         d="m 4769.15,9055 c -11.05,-30.8 -44.96,-46.8 -75.75,-35.7 -30.77,11 -46.77,44.9 -35.72,75.7 11.05,30.8 44.96,46.8 75.74,35.8 30.78,-11.1 46.78,-45 35.73,-75.8" /><path
         id="path156"
         style="fill:#de623c;fill-opacity:1;fill-rule:nonzero;stroke:none"
         d="m 4514.89,8988.1 c -11.58,-86.2 -27.71,-192.1 -27.71,-192.1 0,0 56.6,-59.7 150.46,-18.5 -46.94,-1.5 -98.06,7.4 -105.79,67.4 -7.73,60 -16.96,143.2 -16.96,143.2" /><path
         id="path158"
         style="fill:#020205;fill-opacity:1;fill-rule:nonzero;stroke:none"
         d="m 4394.39,9101.6 c -6.15,-3.7 -14.01,-4.2 -20.77,-0.5 -0.67,0.3 -23.46,12 -44.81,3.8 -15.05,-5.7 -27.1,-20.5 -35.8,-43.9 -4.04,-10.9 -16.12,-16.4 -26.98,-12.4 -10.86,4 -16.4,16.1 -12.36,27 13.19,35.5 33.62,58.6 60.75,68.7 39.71,14.9 77.63,-5.5 79.22,-6.3 10.17,-5.6 13.9,-18.3 8.35,-28.5 -1.85,-3.4 -4.51,-6.1 -7.6,-7.9" /><path
         id="path160"
         style="fill:#020205;fill-opacity:1;fill-rule:nonzero;stroke:none"
         d="m 4667.29,9161.4 c 7.01,-1.5 14.59,0.7 19.77,6.3 0.51,0.6 18.2,19.1 41.05,18.4 16.1,-0.5 32.35,-10.5 48.27,-29.7 7.38,-8.9 20.61,-10.2 29.54,-2.8 8.93,7.4 10.18,20.6 2.8,29.5 -24.14,29.2 -51.05,44.3 -79.99,45 -42.38,0.9 -71.5,-30.8 -72.72,-32.1 -7.77,-8.6 -7.1,-21.9 1.49,-29.7 2.87,-2.6 6.26,-4.2 9.79,-4.9" /><path
         id="path162"
         style="fill:#020205;fill-opacity:1;fill-rule:nonzero;stroke:none"
         d="m 5177.83,8961.1 c -190.13,159.2 -137.63,402.4 -137.63,402.4 -92.21,-6 -118.05,-45.5 -118.05,-45.5 -74.13,85.2 -56.09,165.4 -56.09,165.4 -199.82,21.7 -258.33,-119.6 -410.85,-203 -208.89,-114.2 -508.85,-99.5 -608.17,166.3 -14.37,38.5 22.16,75.8 61.07,62.6 36.08,-12.2 81.13,-17.8 131.28,-2.8 0,0 -61.03,40.2 -83.1,112.6 -12.18,39.9 29.18,74.4 67.11,56.9 56.86,-26.1 152.89,-39.4 298.78,30.7 97.1,46.7 287.06,273.6 441.51,280.9 126.26,5.9 248.17,-70 328,-204.3 0,0 301.21,48.6 417.46,-266 114.21,-309 -313.92,-786.5 -313.92,-786.5 0,0 32.86,181.4 -17.4,230.3" /><path
         id="path164"
         style="fill:#ffffff;fill-opacity:1;fill-rule:nonzero;stroke:none"
         d="m 4538.15,8637 c -11.9,7.7 -8.94,25.8 4.83,29.2 35.01,8.5 92.47,23.8 145.37,43.7 52.89,19.8 106.26,46 138.27,62.6 12.59,6.5 26.72,-5.2 22.81,-18.8 -12.01,-41.9 -43.6,-110.6 -124.67,-140.9 -81.08,-30.4 -149.99,0.5 -186.61,24.2" /><path
         id="path166"
         style="fill:#f37a50;fill-opacity:1;fill-rule:nonzero;stroke:none"
         d="m 5042.45,9177.6 c -61.85,-61 -71.51,-151.5 -21.57,-202.1 49.94,-50.7 140.57,-42.2 202.42,18.8 61.86,61 71.51,151.5 21.56,202.2 -49.93,50.6 -140.55,42.1 -202.41,-18.9" /><path
         id="path168"
         style="fill:#de623c;fill-opacity:1;fill-rule:nonzero;stroke:none"
         d="m 5102.55,9001.5 c -2.7,1 -5.21,2.6 -7.32,4.8 -30.25,31.7 -37.32,70.5 -18.92,103.8 18.86,34.1 59.06,53.4 95.58,45.9 10.28,-2.1 16.91,-12.1 14.8,-22.4 -2.1,-10.3 -12.13,-16.9 -22.41,-14.8 -20.02,4.1 -44.05,-7.8 -54.71,-27.1 -10.25,-18.5 -5.58,-39.6 13.15,-59.2 7.25,-7.6 6.97,-19.6 -0.63,-26.9 -5.38,-5.1 -12.99,-6.4 -19.54,-4.1" /><path
         id="path170"
         style="fill:#3f964f;fill-opacity:1;fill-rule:nonzero;stroke:none"
         d="m 4169.38,5615.9 c 358.3,-73.1 1002.48,-199.4 1343.17,-66.5 128.93,185.1 161.6,1231.8 161.6,1231.8 37.3,1077.4 -91.91,1237.2 -383.29,1598.2 -122.27,-56.1 -428.32,-104 -562.87,-105.1 0,0 -304.88,-423.3 -364.37,-730.7 -60.31,-311.6 -67.14,-865.8 -72.74,-1183.2 -6.23,-352.5 -75.87,-522.5 -121.5,-744.5" /><path
         id="path172"
         style="fill:#0e6a41;fill-opacity:1;fill-rule:nonzero;stroke:none"
         d="m 5333.32,8052.4 c 209.58,-408 162.12,-859.8 -447.27,-1749.3 -426.76,37.2 -510.45,392.9 -510.45,392.9 0,0 117.26,441.7 269.57,997.2 152.32,555.5 596.43,537.7 688.15,359.2" /><path
         id="path174"
         style="fill:#0e6a41;fill-opacity:1;fill-rule:nonzero;stroke:none"
         d="m 3470.23,6781.2 913.74,-72.9 c 0,0 391.87,71.5 502.08,-405.2 -196.14,-152.7 -702.41,-210 -1532.82,98.3 87.87,119.6 117,379.8 117,379.8" /><path
         id="path176"
         style="fill:#ffffff;fill-opacity:1;fill-rule:nonzero;stroke:none"
         d="m 4730.74,8304.5 -8.68,-245.7 618.21,259.2 -74.86,198.8 -534.67,-212.3" /><path
         id="path178"
         style="fill:#faba23;fill-opacity:1;fill-rule:nonzero;stroke:none"
         d="m 9344.78,14259.2 c -202.03,-461.4 -739.82,-671.6 -1201.21,-469.6 -461.38,202 -671.64,739.8 -469.61,1201.2 202.03,461.4 739.82,671.7 1201.21,469.6 461.37,-202 671.63,-739.8 469.61,-1201.2" /><path
         id="path180"
         style="fill:#fad332;fill-opacity:1;fill-rule:nonzero;stroke:none"
         d="m 9195.59,14324.5 c -180.02,-422.6 -717.73,-580.4 -1098.48,-325 -242.12,157.7 -373.67,451.6 -328.3,739.6 70.8,485.7 603.28,770.3 1041.03,572.1 372.56,-159.4 554.27,-608.9 385.75,-986.7" /><path
         id="path182"
         style="fill:#faba23;fill-opacity:1;fill-rule:nonzero;stroke:none"
         d="m 8458.09,13995.2 -0.44,155.1 c -89.06,1.3 -181.25,28.6 -235.1,66.9 l 36.56,102.9 c 55.38,-36.7 135.29,-65.6 221.28,-65.4 109.01,0.3 182.53,63.5 182.29,151 -0.24,84.5 -60.27,136.5 -174.02,182.2 -156.78,61 -253.7,131.4 -254.08,264.9 -0.36,127.5 89.96,224.5 231.15,247.9 l -0.44,155.1 95.19,0.2 0.42,-148.9 c 92.13,-2.8 155.15,-27.2 199.75,-53.2 l -38.1,-101.4 c -32.3,18.3 -95.34,51.9 -193.6,51.6 -118.22,-0.3 -162.55,-71 -162.38,-132.5 0.23,-79.8 57.15,-119.6 190.88,-174.5 158.32,-64 238.38,-143.6 238.77,-280.3 0.34,-121.3 -83.78,-235.1 -241.85,-261.7 l 0.44,-159.6 -96.72,-0.3" /><g
         transform="scale(1.1232)"
         id="g184"><path
           id="path186"
           style="fill:#faba23;fill-opacity:1;fill-rule:nonzero;stroke:none"
           d="m 9776.27,15050.7 c -179.84,-410.8 -658.65,-598 -1069.42,-418.1 -410.78,179.8 -597.96,658.7 -418.09,1069.4 179.85,410.8 658.63,598 1069.42,418.1 410.79,-179.8 597.94,-658.6 418.09,-1069.4" /></g><g
         transform="scale(1.11381)"
         id="g188"><path
           id="path190"
           style="fill:#fad332;fill-opacity:1;fill-rule:nonzero;stroke:none"
           d="m 9724.76,15236.2 c -161.61,-379.4 -644.36,-521.1 -986.19,-291.8 -217.39,141.6 -335.5,405.5 -294.76,664.1 63.57,436 541.6,691.5 934.66,513.6 334.44,-143.2 497.67,-546.7 346.29,-885.9" /></g><g
         transform="scale(1.09826)"
         id="g192"><path
           id="path194"
           style="fill:#faba23;fill-opacity:1;fill-rule:nonzero;stroke:none"
           d="m 9190.87,15152 -0.36,141.2 c -81.13,1.2 -165.05,26.1 -214.07,60.9 l 33.28,93.7 c 50.43,-33.4 123.24,-59.7 201.46,-59.5 99.33,0.3 166.26,57.8 165.99,137.5 -0.19,76.9 -54.82,124.2 -158.44,165.9 -142.74,55.5 -231,119.6 -231.33,241.2 -0.33,116 81.91,204.3 210.48,225.7 l -0.45,141.2 86.68,0.2 0.46,-135.6 c 83.85,-2.6 141.22,-24.8 181.83,-48.4 l -34.69,-92.4 c -29.42,16.7 -86.78,47.3 -176.28,47.1 -107.63,-0.4 -148.05,-64.8 -147.87,-120.7 0.18,-72.7 52.08,-108.9 173.82,-158.9 144.13,-58.3 217.07,-130.8 217.43,-255.2 0.27,-110.4 -76.3,-214.1 -220.25,-238.3 l 0.45,-145.4 -88.14,-0.2" /></g><g
         transform="scale(1.1232)"
         id="g196"><path
           id="path198"
           style="fill:#faba23;fill-opacity:1;fill-rule:nonzero;stroke:none"
           d="m 15974.3,15050.7 c -179.9,-410.8 -658.8,-598 -1069.5,-418.1 -410.8,179.8 -598,658.7 -418.1,1069.4 179.9,410.8 658.7,598 1069.4,418.1 410.8,-179.8 598,-658.6 418.2,-1069.4" /></g><g
         transform="scale(1.11381)"
         id="g200"><path
           id="path202"
           style="fill:#fad332;fill-opacity:1;fill-rule:nonzero;stroke:none"
           d="m 15975,15236.2 c -161.7,-379.4 -644.4,-521.1 -986.2,-291.8 -217.4,141.6 -335.5,405.5 -294.8,664.1 63.6,436 541.7,691.5 934.7,513.6 334.5,-143.2 497.6,-546.7 346.3,-885.9" /></g><g
         transform="scale(1.09826)"
         id="g204"><path
           id="path206"
           style="fill:#faba23;fill-opacity:1;fill-rule:nonzero;stroke:none"
           d="m 15529.6,15152 -0.5,141.2 c -81,1.2 -164.9,26.1 -214,60.9 l 33.3,93.7 c 50.5,-33.4 123.2,-59.7 201.5,-59.5 99.3,0.3 166.2,57.8 166,137.5 -0.3,76.9 -54.9,124.2 -158.5,165.9 -142.7,55.5 -231,119.6 -231.3,241.2 -0.4,116 81.9,204.3 210.4,225.7 l -0.3,141.2 86.6,0.2 0.4,-135.6 c 83.9,-2.6 141.2,-24.8 181.8,-48.4 l -34.7,-92.4 c -29.4,16.7 -86.7,47.3 -176.2,47.1 -107.7,-0.4 -148,-64.8 -147.9,-120.7 0.3,-72.7 52.1,-108.9 173.8,-158.9 144.2,-58.3 217.1,-130.8 217.5,-255.2 0.2,-110.4 -76.3,-214.1 -220.3,-238.3 l 0.5,-145.4 -88.1,-0.2" /></g><g
         transform="scale(1.22717)"
         id="g208"><path
           id="path210"
           style="fill:#faba23;fill-opacity:1;fill-rule:nonzero;stroke:none"
           d="m 16135.3,11619.6 c -164.6,-376 -602.8,-547.3 -978.8,-382.7 -376,164.6 -547.3,602.9 -382.7,978.9 164.6,375.9 602.9,547.3 978.8,382.6 376,-164.6 547.4,-602.8 382.7,-978.8" /></g><g
         transform="scale(1.21596)"
         id="g212"><path
           id="path214"
           style="fill:#fad332;fill-opacity:1;fill-rule:nonzero;stroke:none"
           d="m 16161.3,11780.4 c -148,-347.6 -590.2,-477.3 -903.3,-267.3 -199.2,129.7 -307.3,371.4 -270,608.3 58.3,399.4 496.1,633.4 856.2,470.5 306.4,-131.2 455.8,-500.9 317.1,-811.5" /></g><g
         transform="scale(1.18114)"
         id="g216"><path
           id="path218"
           style="fill:#faba23;fill-opacity:1;fill-rule:nonzero;stroke:none"
           d="m 16013.4,11848.9 -0.3,131.3 c -75.5,1.1 -153.5,24.2 -199.1,56.6 l 31,87.2 c 46.8,-31.1 114.6,-55.6 187.3,-55.4 92.3,0.3 154.6,53.7 154.3,127.8 -0.1,71.5 -50.9,115.6 -147.3,154.3 -132.7,51.6 -214.8,111.2 -215.1,224.3 -0.3,107.9 76.2,190 195.7,209.8 l -0.4,131.3 80.6,0.2 0.4,-126.1 c 78,-2.3 131.3,-23 169.1,-45 l -32.3,-85.9 c -27.3,15.6 -80.6,44 -163.9,43.8 -100,-0.3 -137.5,-60.2 -137.5,-112.2 0.3,-67.6 48.5,-101.3 161.7,-147.7 134,-54.2 201.8,-121.7 202.1,-237.4 0.3,-102.6 -70.9,-199 -204.8,-221.5 l 0.5,-135.2 -82,-0.2" /></g><g
         transform="scale(1.19214)"
         id="g220"><path
           id="path222"
           style="fill:#faba23;fill-opacity:1;fill-rule:nonzero;stroke:none"
           d="m 12356.7,15122.9 c -169.5,-387 -620.6,-563.4 -1007.6,-393.9 -387,169.5 -563.4,620.6 -393.9,1007.6 169.4,387 620.5,563.4 1007.6,393.9 387,-169.4 563.3,-620.6 393.9,-1007.6" /></g><g
         transform="scale(1.18275)"
         id="g224"><path
           id="path226"
           style="fill:#fad332;fill-opacity:1;fill-rule:nonzero;stroke:none"
           d="m 12328.7,15298.2 c -152.2,-357.3 -606.8,-490.7 -928.7,-274.8 -204.8,133.4 -316,381.9 -277.6,625.4 59.9,410.6 510,651.2 880.2,483.7 314.9,-134.9 468.6,-514.9 326.1,-834.3" /></g><g
         transform="scale(1.16721)"
         id="g228"><path
           id="path230"
           style="fill:#faba23;fill-opacity:1;fill-rule:nonzero;stroke:none"
           d="m 11861,15219.8 -0.4,132.8 c -76.3,1.1 -155.3,24.6 -201.4,57.4 l 31.4,88.2 c 47.4,-31.5 115.9,-56.3 189.5,-56.1 93.4,0.3 156.4,54.4 156.2,129.4 -0.2,72.3 -51.6,116.9 -149.1,156.1 -134.3,52.3 -217.4,112.5 -217.7,227 -0.3,109.2 77.1,192.2 198.1,212.3 l -0.4,132.9 81.5,0.2 0.4,-127.6 c 78.9,-2.4 132.9,-23.3 171.1,-45.6 l -32.6,-86.9 c -27.7,15.7 -81.7,44.5 -165.9,44.3 -101.2,-0.3 -139.3,-60.9 -139.1,-113.5 0.2,-68.4 49,-102.5 163.5,-149.5 135.7,-54.9 204.3,-123.1 204.6,-240.2 0.3,-103.9 -71.8,-201.4 -207.2,-224.2 l 0.4,-136.8 -82.9,-0.2" /></g><g
         transform="scale(1.07928)"
         id="g232"><path
           id="path234"
           style="fill:#95a6db;fill-opacity:1;fill-rule:nonzero;stroke:none"
           d="m 16225.9,12229.5 c -40.9,0 -74.1,33.1 -74.1,74.1 0,60.3 -1.5,121.4 -4.6,181.5 -2.1,40.8 29.3,75.7 70.2,77.8 40.8,1.9 75.7,-29.4 77.8,-70.3 3.2,-62.5 4.8,-126.1 4.8,-189 0,-41 -33.2,-74.1 -74.1,-74.1" /></g><g
         transform="scale(1.07677)"
         id="g236"><path
           id="path238"
           style="fill:#95a6db;fill-opacity:1;fill-rule:nonzero;stroke:none"
           d="m 12114,15803.8 c -36,0 -67.5,26.2 -73.3,62.8 -6.3,40.6 21.4,78.6 61.9,84.9 125.6,19.7 253.9,33 381.5,39.5 41,2.1 75.8,-29.4 78,-70.4 2.1,-40.9 -29.5,-75.9 -70.4,-77.9 -122.4,-6.3 -245.6,-19.1 -366.1,-38 -3.9,-0.6 -7.7,-0.9 -11.6,-0.9 z m 1123.5,-0.4 c -3.9,0 -7.8,0.3 -11.7,0.9 -120.4,19 -243.6,31.8 -366,38.2 -40.9,2.1 -72.4,37.1 -70.3,78 2.1,41 37.2,72.5 78,70.4 127.5,-6.7 255.9,-20.1 381.4,-39.8 40.6,-6.4 68.3,-44.5 61.9,-85 -5.8,-36.6 -37.3,-62.7 -73.3,-62.7 z m -1848.7,-193.1 c -29.9,0 -58,18.1 -69.3,47.7 -14.7,38.3 4.4,81.2 42.7,95.9 119,45.7 241.9,85.6 365.1,118.4 39.7,10.6 80.4,-13 90.9,-52.6 10.6,-39.7 -12.9,-80.4 -52.6,-90.9 -118.2,-31.6 -236,-69.8 -350.2,-113.6 -8.7,-3.3 -17.7,-4.9 -26.6,-4.9 z m 2573.6,-1.1 c -9,0 -18,1.6 -26.7,5 -114.1,43.9 -231.9,82.2 -349.9,113.8 -39.7,10.6 -63.2,51.3 -52.6,91 10.7,39.6 51.4,63.1 91,52.5 123.1,-33 245.9,-72.9 364.8,-118.6 38.4,-14.8 57.4,-57.8 42.7,-96.1 -11.3,-29.5 -39.5,-47.6 -69.3,-47.6 z m -3242.3,-340 c -24.3,0 -48.1,11.9 -62.3,33.8 -22.4,34.4 -12.7,80.4 21.7,102.8 107,69.5 218.7,134.1 332.2,192 36.5,18.6 81.3,4.2 99.9,-32.4 18.7,-36.6 4.1,-81.3 -32.4,-100 -108.8,-55.5 -216.1,-117.5 -318.7,-184.2 -12.5,-8.1 -26.5,-12 -40.4,-12 z m 3910.3,-1.3 c -13.9,0 -28,3.9 -40.5,12 -102.4,66.7 -209.6,128.8 -318.4,184.4 -36.5,18.6 -51,63.4 -32.3,99.9 18.7,36.6 63.3,51.1 99.9,32.4 113.4,-58 225.1,-122.6 331.9,-192.2 34.4,-22.4 44.1,-68.4 21.7,-102.8 -14.2,-21.8 -38.1,-33.7 -62.3,-33.7 z m -4493.6,-471.3 c -19.1,0 -38.1,7.3 -52.6,21.8 -29,29 -29,76.1 0,105.1 90.2,90.1 186.1,176.4 285.1,256.7 31.9,25.8 78.7,20.9 104.5,-11 25.8,-31.9 20.9,-78.7 -11,-104.5 -95,-77 -187,-159.8 -273.5,-246.3 -14.5,-14.5 -33.5,-21.8 -52.5,-21.8 z m 5076.4,-1.6 c -19,0 -38,7.3 -52.5,21.8 -86.4,86.5 -178.4,169.5 -273.3,246.5 -31.9,25.8 -36.7,72.6 -10.9,104.5 25.8,31.8 72.6,36.7 104.5,10.9 98.9,-80.3 194.7,-166.7 284.8,-256.8 29.1,-29.1 29,-76.1 0,-105.1 -14.6,-14.5 -33.5,-21.8 -52.6,-21.8 z m -5549.23,-581.2 c -13.94,0 -27.96,3.8 -40.49,12 -34.37,22.4 -44.12,68.4 -21.73,102.8 69.46,106.7 145.43,211 225.76,310 25.82,31.9 72.62,36.8 104.48,10.9 31.85,-25.8 36.68,-72.6 10.86,-104.5 -77.08,-95 -149.89,-195.1 -216.57,-297.5 -14.21,-21.8 -38.07,-33.7 -62.31,-33.7 z m 6021.83,-2.1 c -24.3,0 -48.1,11.9 -62.4,33.8 -66.5,102.5 -139.4,202.6 -216.4,297.8 -25.9,31.8 -20.9,78.6 11,104.4 31.9,25.9 78.7,21 104.5,-10.9 80.2,-99.2 156.2,-203.5 225.6,-310.3 22.4,-34.4 12.6,-80.4 -21.9,-102.8 -12.5,-8.1 -26.5,-12 -40.4,-12 z m -6363.13,-666.1 c -8.82,0 -17.83,1.6 -26.56,5 -38.34,14.7 -57.46,57.7 -42.73,96 45.7,118.8 98.27,236.6 156.22,350.1 18.66,36.6 63.43,51.1 100.02,32.4 36.49,-18.7 50.98,-63.4 32.32,-100 -55.63,-108.9 -106.06,-221.9 -149.9,-335.8 -11.32,-29.6 -39.47,-47.7 -69.37,-47.7 z m 6704.13,-2.8 c -29.9,0 -58.1,18.2 -69.4,47.7 -43.7,114.2 -94.2,227.3 -149.7,336.3 -18.7,36.6 -4.2,81.3 32.4,100 36.6,18.6 81.3,4.1 99.9,-32.5 58,-113.6 110.5,-231.6 156.1,-350.6 14.7,-38.3 -4.4,-81.2 -42.7,-95.9 -8.8,-3.4 -17.8,-5 -26.6,-5 z m -6898.04,-722.2 c -3.85,0 -7.73,0.3 -11.64,0.9 -40.55,6.4 -68.23,44.5 -61.85,85 19.84,126 46.6,252.2 79.51,375.3 10.61,39.6 51.34,63.1 90.99,52.5 39.63,-10.6 63.19,-51.3 52.56,-91 -31.57,-117.9 -57.24,-239 -76.26,-359.9 -5.78,-36.6 -37.37,-62.8 -73.31,-62.8 z m 7091.34,-3.1 c -35.9,0 -67.5,26.2 -73.2,62.8 -19,120.8 -44.5,242 -76,360 -10.6,39.7 13,80.4 52.6,91 39.8,10.6 80.5,-13 91,-52.7 32.8,-123.1 59.4,-249.4 79.2,-375.3 6.3,-40.6 -21.4,-78.6 -62,-84.9 -3.9,-0.6 -7.7,-0.9 -11.6,-0.9" /></g><path
         id="path240"
         style="fill:#95a6db;fill-opacity:1;fill-rule:nonzero;stroke:none"
         d="m 9782.28,13199 c -44.19,0 -80,35.8 -80,80 0,67.8 1.73,136.4 5.18,204 2.25,44.1 39.7,78.1 83.97,75.8 44.13,-2.3 78.07,-39.9 75.83,-84 -3.31,-64.8 -4.98,-130.7 -4.98,-195.8 0,-44.2 -35.82,-80 -80,-80" /><path
         id="path242"
         style="fill:#95a6db;fill-opacity:1;fill-rule:nonzero;stroke:none"
         d="m 10865.2,13199 c -44.2,0 -80,35.8 -80,80 0,68.4 2.4,137.5 7.2,205.5 3.2,44 41.5,77.2 85.5,74.1 44.1,-3.1 77.3,-41.4 74.1,-85.5 -4.5,-64.2 -6.8,-129.5 -6.8,-194.1 0,-44.2 -35.8,-80 -80,-80" /><g
         transform="scale(1.0094)"
         id="g244"><path
           id="path246"
           style="fill:#95a6db;fill-opacity:1;fill-rule:nonzero;stroke:none"
           d="m 14104.8,15770.1 c -5.5,0 -11.2,0.6 -16.8,1.8 -123.7,26.8 -250.9,44.8 -377.9,53.7 -43.6,3.1 -76.5,40.9 -73.5,84.6 3.1,43.7 40.8,76.6 84.6,73.5 134.5,-9.4 269.1,-28.5 400.3,-56.9 42.8,-9.2 70,-51.4 60.7,-94.1 -8,-37.2 -40.8,-62.6 -77.4,-62.6 z m -1171.4,-0.4 c -36.4,0 -69.2,25.3 -77.3,62.4 -9.2,42.8 17.9,85 60.7,94.3 131.2,28.4 265.8,47.7 400.2,57.2 43.6,3.1 81.6,-29.8 84.7,-73.5 3.1,-43.6 -29.8,-81.5 -73.5,-84.6 -126.9,-9 -254.1,-27.2 -377.8,-54 -5.7,-1.3 -11.3,-1.8 -17,-1.8 z m 1906.4,-273.4 c -12.9,0 -25.8,3.1 -37.9,9.7 -111.6,61 -228.4,114.4 -347.4,158.7 -41,15.2 -61.8,60.9 -46.5,101.9 15.2,41 60.9,61.9 101.9,46.6 126,-46.9 249.8,-103.5 368,-168.1 38.4,-21 52.6,-69.1 31.6,-107.5 -14.4,-26.4 -41.6,-41.3 -69.7,-41.3 z m -2640.6,-0.7 c -28,0 -55.1,14.9 -69.6,41.3 -21,38.3 -6.8,86.5 31.5,107.5 118.1,64.6 241.7,121.2 367.6,168.2 41,15.2 86.6,-5.6 102,-46.6 15.2,-41 -5.6,-86.6 -46.6,-102 -118.8,-44.3 -235.5,-97.7 -346.9,-158.6 -12.1,-6.6 -25.1,-9.8 -38,-9.8 z m 3268.5,-469.3 c -20.2,0 -40.5,7.8 -55.9,23.2 -90,89.8 -187.1,173.9 -288.7,250 -35,26.2 -42.1,75.9 -16,110.9 26.3,35.1 76,42.2 111,16 107.6,-80.6 210.4,-169.6 305.6,-264.7 31,-31 31,-81.1 0.1,-112.1 -15.5,-15.5 -35.8,-23.3 -56.1,-23.3 z m -3896,-0.8 c -20.3,0 -40.5,7.7 -56,23.2 -30.9,30.9 -30.9,81.1 0.1,112.1 95.1,95.1 197.9,184.2 305.4,264.8 35.1,26.2 84.7,19.1 111,-15.9 26.2,-35 19.1,-84.7 -15.9,-111 -101.5,-76.1 -198.6,-160.2 -288.5,-250 -15.5,-15.5 -35.8,-23.2 -56.1,-23.2 z m 4366.8,-626.1 c -27.9,0 -55.1,14.9 -69.5,41.2 -61,111.2 -130.6,219.1 -206.9,320.7 -26.3,35 -19.2,84.6 15.7,110.9 35,26.3 84.8,19.2 111,-15.7 80.8,-107.7 154.6,-221.9 219.1,-339.7 21.1,-38.4 7.1,-86.6 -31.4,-107.6 -12,-6.6 -25.1,-9.8 -38,-9.8 z m -4837.4,-1.3 c -12.9,0 -25.9,3.1 -38,9.7 -38.4,21 -52.5,69.2 -31.5,107.6 64.6,117.9 138.3,232.3 219.2,340 26.2,35 75.8,42.1 110.9,15.8 35,-26.3 42.1,-75.9 15.8,-111 -76.3,-101.7 -145.9,-209.7 -206.8,-320.9 -14.5,-26.3 -41.6,-41.2 -69.6,-41.2 z m 5112,-732.8 c -36.4,0 -69.2,25.3 -77.4,62.4 -26.9,124.1 -63.2,247.3 -107.7,366.1 -15.4,41 5.4,86.7 46.4,102 41,15.4 86.7,-5.4 102.1,-46.4 47.1,-126 85.6,-256.5 114.2,-387.9 9.3,-42.8 -17.8,-85 -60.6,-94.3 -5.7,-1.3 -11.3,-1.9 -17,-1.9 z m -5386.4,-2.1 c -5.5,0 -11.2,0.6 -16.8,1.8 -42.8,9.3 -69.9,51.5 -60.6,94.3 28.5,131.6 66.8,262.2 113.9,388.3 15.4,41 61,61.8 102,46.5 41.1,-15.3 61.9,-61 46.5,-102 -44.4,-119 -80.6,-242.3 -107.6,-366.4 -8,-37.1 -40.8,-62.5 -77.4,-62.5" /></g><g
         transform="scale(1.01284)"
         id="g248"><path
           id="path250"
           style="fill:#95a6db;fill-opacity:1;fill-rule:nonzero;stroke:none"
           d="m 16221,13031.6 c -43.5,0 -79,35.4 -79,79 0,63.9 -2.2,128.4 -6.7,191.7 -3.1,43.5 29.6,81.3 73.2,84.4 43.6,3.2 81.2,-29.7 84.4,-73.2 4.7,-67.1 7.1,-135.3 7.1,-202.9 0,-43.6 -35.3,-79 -79,-79" /></g><g
         transform="scale(1.10828)"
         id="g252"><path
           id="path254"
           style="fill:#95a6db;fill-opacity:1;fill-rule:nonzero;stroke:none"
           d="m 15788.5,11867.2 h -0.9 c -13.9,0.2 -26.9,6.9 -35.3,18.1 l -460.7,619.6 c -14.9,20 -10.7,48.3 9.3,63.1 19.9,14.9 48.2,10.7 63.1,-9.3 l 425.9,-572.8 424.3,526.6 c 15.6,19.4 43.9,22.4 63.3,6.8 19.4,-15.6 22.5,-44 6.9,-63.4 l -460.8,-571.9 c -8.6,-10.7 -21.5,-16.8 -35.1,-16.8" /></g><path
         id="path256"
         style="fill:#95a6db;fill-opacity:1;fill-rule:nonzero;stroke:none"
         d="m 10863.6,13152.2 h -1 c -15.4,0.3 -29.9,7.7 -39.1,20.1 l -510.6,686.7 c -16.5,22.2 -11.9,53.4 10.3,69.9 22.1,16.5 53.4,11.9 69.9,-10.3 l 472.1,-634.9 470.1,583.6 c 17.3,21.5 48.8,24.9 70.3,7.6 21.5,-17.3 24.9,-48.7 7.5,-70.2 l -510.6,-633.9 c -9.5,-11.8 -23.8,-18.6 -38.9,-18.6" /><g
         transform="scale(1.28931)"
         id="g258"><path
           id="path260"
           style="fill:#fad332;fill-opacity:1;fill-rule:nonzero;stroke:none"
           d="m 16300,1844.32 v -157.14 c 0,-61.35 -49.8,-111.15 -111.1,-111.15 H 14271 c -61.4,0 -111.2,49.8 -111.2,111.15 v 157.14 c 0,27.37 9.8,52.35 26.3,71.74 20.4,24.12 50.9,39.4 84.9,39.4 h 1917.9 c 33.9,0 64.4,-15.28 84.9,-39.4 16.4,-19.39 26.2,-44.37 26.2,-71.74" /></g><g
         transform="scale(1.13284)"
         id="g262"><path
           id="path264"
           style="fill:#faba23;fill-opacity:1;fill-rule:nonzero;stroke:none"
           d="m 16300,1793.72 h -63.4 v 431.84 h 63.4 v -431.84" /></g><g
         transform="scale(1.15132)"
         id="g266"><path
           id="path268"
           style="fill:#faba23;fill-opacity:1;fill-rule:nonzero;stroke:none"
           d="m 16300,1764.93 h -62.4 v 424.91 h 62.4 v -424.91" /></g><g
         transform="scale(1.1698)"
         id="g270"><path
           id="path272"
           style="fill:#faba23;fill-opacity:1;fill-rule:nonzero;stroke:none"
           d="m 16300,1737.05 h -61.4 v 418.19 h 61.4 v -418.19" /></g><g
         transform="scale(1.18828)"
         id="g274"><path
           id="path276"
           style="fill:#faba23;fill-opacity:1;fill-rule:nonzero;stroke:none"
           d="m 16300,1710.04 h -60.4 v 411.69 h 60.4 v -411.69" /></g><g
         transform="scale(1.20675)"
         id="g278"><path
           id="path280"
           style="fill:#faba23;fill-opacity:1;fill-rule:nonzero;stroke:none"
           d="m 16300,1683.86 h -59.6 v 405.38 h 59.6 v -405.38" /></g><g
         transform="scale(1.22523)"
         id="g282"><path
           id="path284"
           style="fill:#faba23;fill-opacity:1;fill-rule:nonzero;stroke:none"
           d="m 16300,1658.46 h -58.7 v 399.27 h 58.7 v -399.27" /></g><g
         transform="scale(1.24371)"
         id="g286"><path
           id="path288"
           style="fill:#faba23;fill-opacity:1;fill-rule:nonzero;stroke:none"
           d="m 16300,1633.83 h -57.7 v 393.34 h 57.7 v -393.34" /></g><g
         transform="scale(1.26218)"
         id="g290"><path
           id="path292"
           style="fill:#faba23;fill-opacity:1;fill-rule:nonzero;stroke:none"
           d="m 16300,1609.91 h -56.9 v 387.58 h 56.9 v -387.58" /></g><g
         transform="scale(1.28066)"
         id="g294"><path
           id="path296"
           style="fill:#faba23;fill-opacity:1;fill-rule:nonzero;stroke:none"
           d="m 16300,1586.68 h -56.1 v 381.99 h 56.1 v -381.99" /></g><g
         transform="scale(1.28724)"
         id="g298"><path
           id="path300"
           style="fill:#faba23;fill-opacity:1;fill-rule:nonzero;stroke:none"
           d="m 16300,1919.15 h -2091.1 c 20.5,24.16 51,39.46 85.1,39.46 h 1920.9 c 34.1,0 64.6,-15.3 85.1,-39.46" /></g><g
         transform="scale(1.28724)"
         id="g302"><path
           id="path304"
           style="fill:#faba23;fill-opacity:1;fill-rule:nonzero;stroke:none"
           d="m 16300,1618.04 h -2091.1 c 20.5,-24.16 51,-39.47 85.1,-39.47 h 1920.9 c 34.1,0 64.6,15.31 85.1,39.47" /></g><g
         transform="scale(1.29993)"
         id="g306"><path
           id="path308"
           style="fill:#fad332;fill-opacity:1;fill-rule:nonzero;stroke:none"
           d="m 16300,2205.66 v -155.85 c 0,-60.93 -49.4,-110.32 -110.3,-110.32 h -1902.2 c -60.8,0 -110.2,49.39 -110.2,110.32 v 155.85 c 0,27.16 9.7,51.93 26,71.16 20.3,23.93 50.4,39.08 84.2,39.08 h 1902.2 c 33.8,0 64,-15.15 84.2,-39.08 16.3,-19.23 26.1,-44 26.1,-71.16" /></g><g
         transform="scale(1.14345)"
         id="g310"><path
           id="path312"
           style="fill:#faba23;fill-opacity:1;fill-rule:nonzero;stroke:none"
           d="m 16300,2205 h -62.8 v 427.83 h 62.8 V 2205" /></g><g
         transform="scale(1.16193)"
         id="g314"><path
           id="path316"
           style="fill:#faba23;fill-opacity:1;fill-rule:nonzero;stroke:none"
           d="m 16300,2169.93 h -61.8 v 421.03 h 61.8 v -421.03" /></g><g
         transform="scale(1.18041)"
         id="g318"><path
           id="path320"
           style="fill:#faba23;fill-opacity:1;fill-rule:nonzero;stroke:none"
           d="m 16300,2135.96 h -60.8 v 414.44 h 60.8 v -414.44" /></g><g
         transform="scale(1.19888)"
         id="g322"><path
           id="path324"
           style="fill:#faba23;fill-opacity:1;fill-rule:nonzero;stroke:none"
           d="m 16300,2103.04 h -59.9 v 408.05 h 59.9 v -408.05" /></g><g
         transform="scale(1.21736)"
         id="g326"><path
           id="path328"
           style="fill:#faba23;fill-opacity:1;fill-rule:nonzero;stroke:none"
           d="m 16300,2071.12 h -59 v 401.85 h 59 v -401.85" /></g><g
         transform="scale(1.23584)"
         id="g330"><path
           id="path332"
           style="fill:#faba23;fill-opacity:1;fill-rule:nonzero;stroke:none"
           d="m 16300,2040.15 h -58.1 v 395.84 h 58.1 v -395.84" /></g><g
         transform="scale(1.25432)"
         id="g334"><path
           id="path336"
           style="fill:#faba23;fill-opacity:1;fill-rule:nonzero;stroke:none"
           d="m 16300,2010.1 h -57.2 v 390.01 h 57.2 V 2010.1" /></g><g
         transform="scale(1.2728)"
         id="g338"><path
           id="path340"
           style="fill:#faba23;fill-opacity:1;fill-rule:nonzero;stroke:none"
           d="m 16300,1980.91 h -56.4 v 384.35 h 56.4 v -384.35" /></g><g
         transform="scale(1.29128)"
         id="g342"><path
           id="path344"
           style="fill:#faba23;fill-opacity:1;fill-rule:nonzero;stroke:none"
           d="m 16300,1952.57 h -55.6 v 378.84 h 55.6 v -378.84" /></g><g
         transform="scale(1.29785)"
         id="g346"><path
           id="path348"
           style="fill:#faba23;fill-opacity:1;fill-rule:nonzero;stroke:none"
           d="m 16300,2280.47 h -2074 c 20.4,23.96 50.6,39.14 84.4,39.14 h 1905.2 c 33.9,0 64.1,-15.18 84.4,-39.14" /></g><g
         transform="scale(1.29785)"
         id="g350"><path
           id="path352"
           style="fill:#faba23;fill-opacity:1;fill-rule:nonzero;stroke:none"
           d="m 16300,1981.82 h -2074 c 20.4,-23.96 50.6,-39.14 84.4,-39.14 h 1905.2 c 33.9,0 64.1,15.18 84.4,39.14" /></g><g
         transform="scale(1.2917)"
         id="g354"><path
           id="path356"
           style="fill:#fad332;fill-opacity:1;fill-rule:nonzero;stroke:none"
           d="m 16300,2597.82 v -156.85 c 0,-61.31 -49.7,-110.94 -111,-110.94 h -1914.3 c -61.3,0 -111,49.63 -111,110.94 v 156.85 c 0,27.33 9.9,52.26 26.2,71.61 20.5,24.08 50.8,39.33 84.8,39.33 H 16189 c 34,0 64.4,-15.25 84.8,-39.33 16.4,-19.35 26.2,-44.28 26.2,-71.61" /></g><g
         transform="scale(1.13522)"
         id="g358"><path
           id="path360"
           style="fill:#faba23;fill-opacity:1;fill-rule:nonzero;stroke:none"
           d="m 16300,2651.2 h -63.2 v 430.93 h 63.2 V 2651.2" /></g><g
         transform="scale(1.1537)"
         id="g362"><path
           id="path364"
           style="fill:#faba23;fill-opacity:1;fill-rule:nonzero;stroke:none"
           d="m 16300,2608.74 h -62.2 v 424.03 h 62.2 v -424.03" /></g><g
         transform="scale(1.17218)"
         id="g366"><path
           id="path368"
           style="fill:#faba23;fill-opacity:1;fill-rule:nonzero;stroke:none"
           d="m 16300,2567.61 h -61.3 v 417.35 h 61.3 v -417.35" /></g><g
         transform="scale(1.19066)"
         id="g370"><path
           id="path372"
           style="fill:#faba23;fill-opacity:1;fill-rule:nonzero;stroke:none"
           d="m 16300,2527.76 h -60.3 v 410.87 h 60.3 v -410.87" /></g><g
         transform="scale(1.20914)"
         id="g374"><path
           id="path376"
           style="fill:#faba23;fill-opacity:1;fill-rule:nonzero;stroke:none"
           d="m 16300,2489.13 h -59.4 v 404.59 h 59.4 v -404.59" /></g><g
         transform="scale(1.22761)"
         id="g378"><path
           id="path380"
           style="fill:#faba23;fill-opacity:1;fill-rule:nonzero;stroke:none"
           d="m 16300,2451.67 h -58.5 v 398.5 h 58.5 v -398.5" /></g><g
         transform="scale(1.24609)"
         id="g382"><path
           id="path384"
           style="fill:#faba23;fill-opacity:1;fill-rule:nonzero;stroke:none"
           d="m 16300,2415.31 h -57.6 v 392.59 h 57.6 v -392.59" /></g><g
         transform="scale(1.26457)"
         id="g386"><path
           id="path388"
           style="fill:#faba23;fill-opacity:1;fill-rule:nonzero;stroke:none"
           d="m 16300,2380.02 h -56.8 v 386.85 h 56.8 v -386.85" /></g><g
         transform="scale(1.28305)"
         id="g390"><path
           id="path392"
           style="fill:#faba23;fill-opacity:1;fill-rule:nonzero;stroke:none"
           d="m 16300,2345.74 h -56 v 381.28 h 56 v -381.28" /></g><g
         transform="scale(1.28962)"
         id="g394"><path
           id="path396"
           style="fill:#faba23;fill-opacity:1;fill-rule:nonzero;stroke:none"
           d="m 16300,2673.74 h -2087.2 c 20.5,24.11 50.9,39.39 84.9,39.39 h 1917.4 c 34,0 64.5,-15.28 84.9,-39.39" /></g><g
         transform="scale(1.28962)"
         id="g398"><path
           id="path400"
           style="fill:#faba23;fill-opacity:1;fill-rule:nonzero;stroke:none"
           d="m 16300,2373.18 h -2087.2 c 20.5,-24.12 50.9,-39.39 84.9,-39.39 h 1917.4 c 34,0 64.5,15.27 84.9,39.39" /></g><g
         transform="scale(1.29509)"
         id="g402"><path
           id="path404"
           style="fill:#fad332;fill-opacity:1;fill-rule:nonzero;stroke:none"
           d="m 16300,2961.27 v -156.44 c 0,-61.07 -49.6,-110.64 -110.7,-110.64 H 14280 c -61.1,0 -110.7,49.57 -110.7,110.64 v 156.44 c 0,27.26 9.8,52.2 26.1,71.5 20.3,23.94 50.7,39.23 84.6,39.23 h 1909.3 c 33.9,0 64.2,-15.29 84.5,-39.23 16.3,-19.3 26.2,-44.24 26.2,-71.5" /></g><g
         transform="scale(1.13861)"
         id="g406"><path
           id="path408"
           style="fill:#faba23;fill-opacity:1;fill-rule:nonzero;stroke:none"
           d="m 16300,3064.45 h -63.1 v 429.73 h 63.1 v -429.73" /></g><g
         transform="scale(1.15709)"
         id="g410"><path
           id="path412"
           style="fill:#faba23;fill-opacity:1;fill-rule:nonzero;stroke:none"
           d="m 16300,3015.51 h -62.1 v 422.87 h 62.1 v -422.87" /></g><g
         transform="scale(1.17556)"
         id="g414"><path
           id="path416"
           style="fill:#faba23;fill-opacity:1;fill-rule:nonzero;stroke:none"
           d="m 16300,2968.11 h -61.1 v 416.22 h 61.1 v -416.22" /></g><g
         transform="scale(1.19404)"
         id="g418"><path
           id="path420"
           style="fill:#faba23;fill-opacity:1;fill-rule:nonzero;stroke:none"
           d="m 16300,2922.18 h -60.1 v 409.78 h 60.1 v -409.78" /></g><g
         transform="scale(1.21252)"
         id="g422"><path
           id="path424"
           style="fill:#faba23;fill-opacity:1;fill-rule:nonzero;stroke:none"
           d="m 16300,2877.64 h -59.2 v 403.54 h 59.2 v -403.54" /></g><g
         transform="scale(1.231)"
         id="g426"><path
           id="path428"
           style="fill:#faba23;fill-opacity:1;fill-rule:nonzero;stroke:none"
           d="m 16300,2834.45 h -58.3 v 397.48 h 58.3 v -397.48" /></g><g
         transform="scale(1.24948)"
         id="g430"><path
           id="path432"
           style="fill:#faba23;fill-opacity:1;fill-rule:nonzero;stroke:none"
           d="m 16300,2792.53 h -57.5 v 391.6 h 57.5 v -391.6" /></g><g
         transform="scale(1.26796)"
         id="g434"><path
           id="path436"
           style="fill:#faba23;fill-opacity:1;fill-rule:nonzero;stroke:none"
           d="m 16300,2751.83 h -56.6 v 385.89 h 56.6 v -385.89" /></g><g
         transform="scale(1.28644)"
         id="g438"><path
           id="path440"
           style="fill:#faba23;fill-opacity:1;fill-rule:nonzero;stroke:none"
           d="m 16300,2712.3 h -55.8 v 380.35 h 55.8 V 2712.3" /></g><g
         transform="scale(1.29301)"
         id="g442"><path
           id="path444"
           style="fill:#faba23;fill-opacity:1;fill-rule:nonzero;stroke:none"
           d="m 16300,3037.65 h -2081.7 c 20.3,23.97 50.7,39.29 84.6,39.29 h 1912.4 c 34,0 64.4,-15.32 84.7,-39.29" /></g><g
         transform="scale(1.29301)"
         id="g446"><path
           id="path448"
           style="fill:#faba23;fill-opacity:1;fill-rule:nonzero;stroke:none"
           d="m 16300,2737.81 h -2081.7 c 20.3,-24.05 50.7,-39.29 84.6,-39.29 h 1912.4 c 34,0 64.4,15.24 84.7,39.29" /></g><g
         transform="scale(1.27617)"
         id="g450"><path
           id="path452"
           style="fill:#fad332;fill-opacity:1;fill-rule:nonzero;stroke:none"
           d="m 16300,3394.29 v -158.68 c 0,-62.06 -50.3,-112.36 -112.3,-112.36 h -1937.6 c -62,0 -112.4,50.3 -112.4,112.36 v 158.68 c 0,27.66 10,52.97 26.6,72.56 20.6,24.37 51.4,39.81 85.8,39.81 h 1937.6 c 34.3,0 65.1,-15.44 85.8,-39.81 16.5,-19.59 26.5,-44.9 26.5,-72.56" /></g><g
         transform="scale(1.1197)"
         id="g454"><path
           id="path456"
           style="fill:#faba23;fill-opacity:1;fill-rule:nonzero;stroke:none"
           d="m 16300,3559.71 h -64.1 v 436.99 h 64.1 v -436.99" /></g><g
         transform="scale(1.13818)"
         id="g458"><path
           id="path460"
           style="fill:#faba23;fill-opacity:1;fill-rule:nonzero;stroke:none"
           d="m 16300,3501.91 h -63.1 v 429.9 h 63.1 v -429.9" /></g><g
         transform="scale(1.15666)"
         id="g462"><path
           id="path464"
           style="fill:#faba23;fill-opacity:1;fill-rule:nonzero;stroke:none"
           d="m 16300,3445.97 h -62.1 V 3869 h 62.1 v -423.03" /></g><g
         transform="scale(1.17513)"
         id="g466"><path
           id="path468"
           style="fill:#faba23;fill-opacity:1;fill-rule:nonzero;stroke:none"
           d="m 16300,3391.78 h -61.2 v 416.38 h 61.2 v -416.38" /></g><g
         transform="scale(1.19361)"
         id="g470"><path
           id="path472"
           style="fill:#faba23;fill-opacity:1;fill-rule:nonzero;stroke:none"
           d="m 16300,3339.27 h -60.2 v 409.93 h 60.2 v -409.93" /></g><g
         transform="scale(1.21209)"
         id="g474"><path
           id="path476"
           style="fill:#faba23;fill-opacity:1;fill-rule:nonzero;stroke:none"
           d="m 16300,3288.36 h -59.3 v 403.69 h 59.3 v -403.69" /></g><g
         transform="scale(1.23056)"
         id="g478"><path
           id="path480"
           style="fill:#faba23;fill-opacity:1;fill-rule:nonzero;stroke:none"
           d="m 16300,3239 h -58.3 v 397.63 h 58.3 V 3239" /></g><g
         transform="scale(1.24904)"
         id="g482"><path
           id="path484"
           style="fill:#faba23;fill-opacity:1;fill-rule:nonzero;stroke:none"
           d="m 16300,3191.08 h -57.5 v 391.74 h 57.5 v -391.74" /></g><g
         transform="scale(1.26752)"
         id="g486"><path
           id="path488"
           style="fill:#faba23;fill-opacity:1;fill-rule:nonzero;stroke:none"
           d="m 16300,3144.56 h -56.6 v 386.03 h 56.6 v -386.03" /></g><g
         transform="scale(1.2741)"
         id="g490"><path
           id="path492"
           style="fill:#faba23;fill-opacity:1;fill-rule:nonzero;stroke:none"
           d="m 16300,3472.5 h -2112.6 c 20.6,24.41 51.5,39.87 85.9,39.87 h 1940.8 c 34.3,0 65.2,-15.46 85.9,-39.87" /></g><g
         transform="scale(1.2741)"
         id="g494"><path
           id="path496"
           style="fill:#faba23;fill-opacity:1;fill-rule:nonzero;stroke:none"
           d="m 16300,3168.28 h -2112.6 c 20.6,-24.41 51.5,-39.95 85.9,-39.95 h 1940.8 c 34.3,0 65.2,15.54 85.9,39.95" /></g><g
         transform="scale(1.29478)"
         id="g498"><path
           id="path500"
           style="fill:#fad332;fill-opacity:1;fill-rule:nonzero;stroke:none"
           d="m 16300,3719.01 v -156.47 c 0,-61.09 -49.6,-110.68 -110.7,-110.68 h -1909.7 c -61.2,0 -110.8,49.59 -110.8,110.68 v 156.47 c 0,27.27 9.9,52.14 26.2,71.44 20.3,24.02 50.7,39.24 84.6,39.24 h 1909.7 c 33.9,0 64.3,-15.22 84.6,-39.24 16.3,-19.3 26.1,-44.17 26.1,-71.44" /></g><g
         transform="scale(1.13831)"
         id="g502"><path
           id="path504"
           style="fill:#faba23;fill-opacity:1;fill-rule:nonzero;stroke:none"
           d="m 16300,3926.36 h -63.1 v 429.76 h 63.1 v -429.76" /></g><g
         transform="scale(1.15679)"
         id="g506"><path
           id="path508"
           style="fill:#faba23;fill-opacity:1;fill-rule:nonzero;stroke:none"
           d="m 16300,3863.64 h -62.1 v 422.9 h 62.1 v -422.9" /></g><g
         transform="scale(1.17526)"
         id="g510"><path
           id="path512"
           style="fill:#faba23;fill-opacity:1;fill-rule:nonzero;stroke:none"
           d="m 16300,3802.89 h -61.1 v 416.25 h 61.1 v -416.25" /></g><g
         transform="scale(1.19374)"
         id="g514"><path
           id="path516"
           style="fill:#faba23;fill-opacity:1;fill-rule:nonzero;stroke:none"
           d="m 16300,3744.02 h -60.1 v 409.81 h 60.1 v -409.81" /></g><g
         transform="scale(1.21222)"
         id="g518"><path
           id="path520"
           style="fill:#faba23;fill-opacity:1;fill-rule:nonzero;stroke:none"
           d="m 16300,3686.95 h -59.2 v 403.56 h 59.2 v -403.56" /></g><g
         transform="scale(1.2307)"
         id="g522"><path
           id="path524"
           style="fill:#faba23;fill-opacity:1;fill-rule:nonzero;stroke:none"
           d="m 16300,3631.59 h -58.3 v 397.5 h 58.3 v -397.5" /></g><g
         transform="scale(1.24918)"
         id="g526"><path
           id="path528"
           style="fill:#faba23;fill-opacity:1;fill-rule:nonzero;stroke:none"
           d="m 16300,3577.87 h -57.6 v 391.62 h 57.6 v -391.62" /></g><g
         transform="scale(1.26766)"
         id="g530"><path
           id="path532"
           style="fill:#faba23;fill-opacity:1;fill-rule:nonzero;stroke:none"
           d="m 16300,3525.72 h -56.7 v 385.91 h 56.7 v -385.91" /></g><g
         transform="scale(1.28613)"
         id="g534"><path
           id="path536"
           style="fill:#faba23;fill-opacity:1;fill-rule:nonzero;stroke:none"
           d="m 16300,3475.08 h -55.8 v 380.37 h 55.8 v -380.37" /></g><g
         transform="scale(1.29271)"
         id="g538"><path
           id="path540"
           style="fill:#faba23;fill-opacity:1;fill-rule:nonzero;stroke:none"
           d="m 16300,3796.53 h -2082.2 c 20.3,24.06 50.7,39.3 84.7,39.3 h 1912.8 c 34,0 64.4,-15.24 84.7,-39.3" /></g><g
         transform="scale(1.29271)"
         id="g542"><path
           id="path544"
           style="fill:#faba23;fill-opacity:1;fill-rule:nonzero;stroke:none"
           d="m 16300,3496.7 h -2082.2 c 20.3,-24.06 50.7,-39.3 84.7,-39.3 h 1912.8 c 34,0 64.4,15.24 84.7,39.3" /></g><g
         transform="scale(1.28818)"
         id="g546"><path
           id="path548"
           style="fill:#fad332;fill-opacity:1;fill-rule:nonzero;stroke:none"
           d="m 16300,4119.06 v -157.28 c 0,-61.48 -49.8,-111.32 -111.3,-111.32 h -1919.5 c -61.4,0 -111.3,49.84 -111.3,111.32 v 157.28 c 0,27.32 9.9,52.39 26.3,71.8 20.4,24.14 50.9,39.43 85,39.43 h 1919.5 c 34.1,0 64.6,-15.29 85,-39.43 16.4,-19.41 26.3,-44.48 26.3,-71.8" /></g><g
         transform="scale(1.13171)"
         id="g550"><path
           id="path552"
           style="fill:#faba23;fill-opacity:1;fill-rule:nonzero;stroke:none"
           d="m 16300,4382.86 h -63.4 v 432.35 h 63.4 v -432.35" /></g><g
         transform="scale(1.15018)"
         id="g554"><path
           id="path556"
           style="fill:#faba23;fill-opacity:1;fill-rule:nonzero;stroke:none"
           d="m 16300,4312.44 h -62.4 v 425.41 h 62.4 v -425.41" /></g><g
         transform="scale(1.16866)"
         id="g558"><path
           id="path560"
           style="fill:#faba23;fill-opacity:1;fill-rule:nonzero;stroke:none"
           d="m 16300,4244.25 h -61.4 v 418.68 h 61.4 v -418.68" /></g><g
         transform="scale(1.18714)"
         id="g562"><path
           id="path564"
           style="fill:#faba23;fill-opacity:1;fill-rule:nonzero;stroke:none"
           d="m 16300,4178.19 h -60.5 v 412.16 h 60.5 v -412.16" /></g><g
         transform="scale(1.20562)"
         id="g566"><path
           id="path568"
           style="fill:#faba23;fill-opacity:1;fill-rule:nonzero;stroke:none"
           d="m 16300,4114.15 h -59.6 V 4520 h 59.6 v -405.85" /></g><g
         transform="scale(1.2241)"
         id="g570"><path
           id="path572"
           style="fill:#faba23;fill-opacity:1;fill-rule:nonzero;stroke:none"
           d="m 16300,4052.05 h -58.7 v 399.72 h 58.7 v -399.72" /></g><g
         transform="scale(1.24258)"
         id="g574"><path
           id="path576"
           style="fill:#faba23;fill-opacity:1;fill-rule:nonzero;stroke:none"
           d="m 16300,3991.79 h -57.8 v 393.77 h 57.8 v -393.77" /></g><g
         transform="scale(1.26106)"
         id="g578"><path
           id="path580"
           style="fill:#faba23;fill-opacity:1;fill-rule:nonzero;stroke:none"
           d="m 16300,3933.29 h -56.9 v 388.01 h 56.9 v -388.01" /></g><g
         transform="scale(1.27953)"
         id="g582"><path
           id="path584"
           style="fill:#faba23;fill-opacity:1;fill-rule:nonzero;stroke:none"
           d="m 16300,3876.49 h -56.1 v 382.4 h 56.1 v -382.4" /></g><g
         transform="scale(1.2861)"
         id="g586"><path
           id="path588"
           style="fill:#faba23;fill-opacity:1;fill-rule:nonzero;stroke:none"
           d="m 16300,4197.64 h -2092.9 c 20.4,24.18 51,39.5 85.1,39.5 h 1922.7 c 34.1,0 64.6,-15.32 85.1,-39.5" /></g><g
         transform="scale(1.2861)"
         id="g590"><path
           id="path592"
           style="fill:#faba23;fill-opacity:1;fill-rule:nonzero;stroke:none"
           d="m 16300,3896.18 h -2092.9 c 20.4,-24.1 51,-39.49 85.1,-39.49 h 1922.7 c 34.1,0 64.6,15.39 85.1,39.49" /></g><g
         transform="scale(1.29725)"
         id="g594"><path
           id="path596"
           style="fill:#fad332;fill-opacity:1;fill-rule:nonzero;stroke:none"
           d="m 16300,4465.31 v -156.18 c 0,-60.98 -49.5,-110.47 -110.5,-110.47 h -1906.1 c -61,0 -110.5,49.49 -110.5,110.47 v 156.18 c 0,27.21 9.8,52.03 26.1,71.3 20.3,23.98 50.6,39.16 84.4,39.16 h 1906.1 c 33.9,0 64.1,-15.18 84.4,-39.16 16.3,-19.27 26.1,-44.09 26.1,-71.3" /></g><g
         transform="scale(1.14077)"
         id="g598"><path
           id="path600"
           style="fill:#faba23;fill-opacity:1;fill-rule:nonzero;stroke:none"
           d="m 16300,4774.57 h -62.9 v 428.83 h 62.9 v -428.83" /></g><g
         transform="scale(1.15925)"
         id="g602"><path
           id="path604"
           style="fill:#faba23;fill-opacity:1;fill-rule:nonzero;stroke:none"
           d="m 16300,4698.46 h -61.9 v 422 h 61.9 v -422" /></g><g
         transform="scale(1.17773)"
         id="g606"><path
           id="path608"
           style="fill:#faba23;fill-opacity:1;fill-rule:nonzero;stroke:none"
           d="m 16300,4624.74 h -61 v 415.38 h 61 v -415.38" /></g><g
         transform="scale(1.19621)"
         id="g610"><path
           id="path612"
           style="fill:#faba23;fill-opacity:1;fill-rule:nonzero;stroke:none"
           d="m 16300,4553.3 h -60 v 408.96 h 60 V 4553.3" /></g><g
         transform="scale(1.21469)"
         id="g614"><path
           id="path616"
           style="fill:#faba23;fill-opacity:1;fill-rule:nonzero;stroke:none"
           d="m 16300,4484.04 h -59.1 v 402.73 h 59.1 v -402.73" /></g><g
         transform="scale(1.23317)"
         id="g618"><path
           id="path620"
           style="fill:#faba23;fill-opacity:1;fill-rule:nonzero;stroke:none"
           d="m 16300,4416.84 h -58.2 v 396.7 h 58.2 v -396.7" /></g><g
         transform="scale(1.25164)"
         id="g622"><path
           id="path624"
           style="fill:#faba23;fill-opacity:1;fill-rule:nonzero;stroke:none"
           d="m 16300,4351.64 h -57.4 v 390.84 h 57.4 v -390.84" /></g><g
         transform="scale(1.27012)"
         id="g626"><path
           id="path628"
           style="fill:#faba23;fill-opacity:1;fill-rule:nonzero;stroke:none"
           d="m 16300,4288.35 h -56.5 v 385.16 h 56.5 v -385.16" /></g><g
         transform="scale(1.2886)"
         id="g630"><path
           id="path632"
           style="fill:#faba23;fill-opacity:1;fill-rule:nonzero;stroke:none"
           d="m 16300,4226.85 h -55.7 v 379.64 h 55.7 v -379.64" /></g><g
         transform="scale(1.29517)"
         id="g634"><path
           id="path636"
           style="fill:#faba23;fill-opacity:1;fill-rule:nonzero;stroke:none"
           d="m 16300,4543.88 h -2078.3 c 20.3,24.01 50.7,39.22 84.6,39.22 h 1909.2 c 33.9,0 64.1,-15.21 84.5,-39.22" /></g><g
         transform="scale(1.29517)"
         id="g638"><path
           id="path640"
           style="fill:#faba23;fill-opacity:1;fill-rule:nonzero;stroke:none"
           d="m 16300,4244.61 h -2078.3 c 20.3,-24.01 50.7,-39.22 84.6,-39.22 h 1909.2 c 33.9,0 64.1,15.21 84.5,39.22" /></g><g
         transform="scale(1.22485)"
         id="g642"><path
           id="path644"
           style="fill:#faba23;fill-opacity:1;fill-rule:nonzero;stroke:none"
           d="m 16095.5,2475 c -204.4,-633.14 -883.6,-980.69 -1516.7,-776.26 -633.2,204.52 -980.8,883.54 -776.3,1516.76 204.5,633.23 883.6,980.78 1516.7,776.27 633.2,-204.52 980.8,-883.54 776.3,-1516.77" /></g><g
         transform="scale(1.20082)"
         id="g646"><path
           id="path648"
           style="fill:#fad332;fill-opacity:1;fill-rule:nonzero;stroke:none"
           d="m 16208.7,2591.97 c -171.4,-530.55 -740.3,-821.68 -1270.8,-650.3 -55.3,17.82 -108.1,40.05 -158,66.12 -84.6,44.06 -160.8,99.1 -227.6,162.81 -25.3,24.15 -49.3,49.55 -72,75.94 -165.4,194.21 -254.3,447.53 -240.5,708.68 4.5,85.45 20.1,171.8 47.7,257.16 127.8,395.65 476.7,658.22 865.9,695.03 132.6,12.57 270,-1.09 404.9,-44.64 116.8,-37.72 222,-94.6 313.1,-166.3 27.5,-21.57 53.9,-44.47 78.8,-68.71 67.7,-65.53 125.5,-139.98 172,-220.76 137.7,-238.59 177.8,-532.22 86.5,-815.03" /></g><g
         transform="scale(1.16925)"
         id="g650"><path
           id="path652"
           style="fill:#faee6c;fill-opacity:1;fill-rule:nonzero;stroke:none"
           d="M 16300,3796.3 14871.4,2307.21 c -169.9,199.45 -261.2,459.62 -247,727.82 l 938.2,977.9 c 136.2,12.91 277.4,-1.11 415.9,-45.84 119.9,-38.74 227.9,-97.16 321.5,-170.79" /></g><g
         transform="scale(1.18772)"
         id="g654"><path
           id="path656"
           style="fill:#faee6c;fill-opacity:1;fill-rule:nonzero;stroke:none"
           d="M 16300,3444.57 14942.9,2029.93 c -85.5,44.54 -162.5,100.19 -230.1,164.6 l 1413.3,1473.24 c 68.4,-66.26 126.8,-141.53 173.9,-223.2" /></g><g
         transform="scale(1.12832)"
         id="g658"><path
           id="path660"
           style="fill:#ffffff;fill-opacity:1;fill-rule:nonzero;stroke:none"
           d="m 16300,4109.83 c -126.9,13.29 -150.1,0.8 -207.1,-111.76 14.2,125.32 1.7,148.54 -111.8,207.03 126.9,-13.29 150.2,-0.79 207.1,111.76 -13.3,-126.91 -0.8,-150.04 111.8,-207.03" /></g><g
         transform="scale(1.09723)"
         id="g662"><path
           id="path664"
           style="fill:#ffffff;fill-opacity:1;fill-rule:nonzero;stroke:none"
           d="m 16300,2151.24 c -110.2,11.58 -130.2,0.73 -179.7,-96.97 12.3,108.82 1.4,128.87 -97,179.72 110.1,-11.57 130.2,-0.72 179.7,96.98 -11.5,-110.19 -0.7,-130.24 97,-179.73" /></g><g
         transform="scale(1.28137)"
         id="g666"><path
           id="path668"
           style="fill:#e3eaff;fill-opacity:1;fill-rule:nonzero;stroke:none"
           d="m 15036,9008.51 c -662.5,0 -1201.6,-539.01 -1201.6,-1201.54 0,-662.53 539.1,-1201.56 1201.6,-1201.56 662.5,0 1201.6,539.03 1201.6,1201.56 0,662.53 -539.1,1201.54 -1201.6,1201.54 z m 0,-2465.53 c -696.9,0 -1264,567.04 -1264,1263.99 0,696.96 567.1,1263.97 1264,1263.97 697,0 1264,-567.01 1264,-1263.97 0,-696.95 -567,-1263.99 -1264,-1263.99" /></g><g
         transform="scale(1.1952)"
         id="g670"><path
           id="path672"
           style="fill:#e3eaff;fill-opacity:1;fill-rule:nonzero;stroke:none"
           d="m 16120.1,7600.72 c -99.4,0 -179.9,80.57 -179.9,179.89 V 10267 c 0,99.4 80.5,179.9 179.9,179.9 99.3,0 179.9,-80.5 179.9,-179.9 V 7780.61 c 0,-99.32 -80.6,-179.89 -179.9,-179.89" /></g><g
         transform="scale(1.28137)"
         id="g674"><path
           id="path676"
           style="fill:#e3eaff;fill-opacity:1;fill-rule:nonzero;stroke:none"
           d="m 15036,9008.51 c -662.5,0 -1201.6,-539.01 -1201.6,-1201.54 0,-662.53 539.1,-1201.56 1201.6,-1201.56 662.5,0 1201.6,539.03 1201.6,1201.56 0,662.53 -539.1,1201.54 -1201.6,1201.54 z m 0,-2465.53 c -696.9,0 -1264,567.04 -1264,1263.99 0,696.96 567.1,1263.97 1264,1263.97 697,0 1264,-567.01 1264,-1263.97 0,-696.95 -567,-1263.99 -1264,-1263.99" /></g><g
         transform="scale(1.1952)"
         id="g678"><path
           id="path680"
           style="fill:#e3eaff;fill-opacity:1;fill-rule:nonzero;stroke:none"
           d="m 16120.1,7600.72 c -99.4,0 -179.9,80.57 -179.9,179.89 V 10267 c 0,99.4 80.5,179.9 179.9,179.9 99.3,0 179.9,-80.5 179.9,-179.9 V 7780.61 c 0,-99.32 -80.6,-179.89 -179.9,-179.89" /></g><g
         transform="scale(1.25064)"
         id="g682"><path
           id="path684"
           style="fill:#e3eaff;fill-opacity:1;fill-rule:nonzero;stroke:none"
           d="m 15417.3,7122.69 c -2.1,0 -4.4,0.07 -6.6,0.16 -52.6,1.99 -101.4,28.06 -132.3,70.6 l -713.9,914.68 c -55.9,76.76 -39,184.28 37.7,240.17 76.8,55.89 184.3,38.97 240.2,-37.78 l 585.7,-738.63 548.9,749.1 c 61.6,72.2 170.1,80.71 242.3,19.04 72.2,-61.67 80.7,-170.19 19.1,-242.38 l -690.3,-914.68 c -32.8,-38.3 -80.6,-60.28 -130.8,-60.28" /></g><path
         id="path686"
         style="fill:#e3eaff;fill-opacity:1;fill-rule:nonzero;stroke:none"
         d="m 8533.56,11707.9 c -848.95,0 -1539.62,-690.6 -1539.62,-1539.6 0,-848.9 690.67,-1539.6 1539.62,-1539.6 848.95,0 1539.64,690.7 1539.64,1539.6 0,849 -690.69,1539.6 -1539.64,1539.6 z m 0,-3159.2 c -893.07,0 -1619.62,726.6 -1619.62,1619.6 0,893.1 726.55,1619.6 1619.62,1619.6 893.06,0 1619.64,-726.5 1619.64,-1619.6 0,-893 -726.58,-1619.6 -1619.64,-1619.6" /><path
         id="path688"
         style="fill:#e3eaff;fill-opacity:1;fill-rule:nonzero;stroke:none"
         d="m 9705.64,10168.3 c 0,-647.3 -524.76,-1172.1 -1172.08,-1172.1 -647.32,0 -1172.09,524.8 -1172.09,1172.1 0,647.3 524.77,1172.1 1172.09,1172.1 647.32,0 1172.08,-524.8 1172.08,-1172.1" /><path
         id="path690"
         style="fill:#95a6db;fill-opacity:1;fill-rule:nonzero;stroke:none"
         d="m 9421.31,9676.4 c -172.11,-313.2 -505.12,-525.5 -887.72,-525.5 -382.68,0 -715.68,212.3 -887.8,525.5 108.82,193.6 279.28,348.1 484.8,436.8 -87.86,96.6 -141.4,225 -141.4,365.9 0,300.6 243.69,544.4 544.4,544.4 300.63,0 544.32,-243.8 544.32,-544.4 0,-140.9 -53.53,-269.3 -141.39,-365.9 205.51,-88.7 375.97,-243.2 484.79,-436.8" /><g
         transform="scale(1.28566)"
         id="g692"><path
           id="path694"
           style="fill:#faba23;fill-opacity:1;fill-rule:nonzero;stroke:none"
           d="m 16300,5748.94 -528.6,284.29 c -14.9,-27.77 -29.8,-55.45 -44.7,-83.15 -21.6,-40.21 79.9,-136.74 226.6,-215.68 146.8,-78.95 283.3,-110.37 304.9,-70.16 2.1,3.65 41.8,84.7 41.8,84.7" /></g><g
         transform="scale(1.28741)"
         id="g696"><path
           id="path698"
           style="fill:#fad332;fill-opacity:1;fill-rule:nonzero;stroke:none"
           d="m 16278.4,5735.07 c -21.6,-40.07 -157.9,-8.69 -304.5,70.07 -146.6,78.84 -247.8,175.31 -226.3,215.39 21.6,40.16 157.9,8.78 304.5,-70.06 146.5,-78.84 247.9,-175.24 226.3,-215.4" /></g><g
         transform="scale(1.10224)"
         id="g700"><path
           id="path702"
           style="fill:#faba23;fill-opacity:1;fill-rule:nonzero;stroke:none"
           d="M 16272.9,5459.61 15649,5358.28 c 5.2,-32.67 10.6,-65.42 15.8,-98.17 7.8,-47.36 154.5,-63.05 327.7,-34.93 173.3,28.22 307.5,89.46 299.8,136.91 -0.6,4.35 -19.4,97.52 -19.4,97.52" /></g><g
         transform="scale(1.10122)"
         id="g704"><path
           id="path706"
           style="fill:#fad332;fill-opacity:1;fill-rule:nonzero;stroke:none"
           d="m 16292.3,5460.03 c 7.7,-47.49 -126.6,-108.79 -300.1,-137.03 -173.4,-28.15 -320.2,-12.44 -327.9,34.96 -7.8,47.5 126.6,108.79 300,137.03 173.4,28.15 320.3,12.44 328,-34.96" /></g><g
         transform="scale(1.15082)"
         id="g708"><path
           id="path710"
           style="fill:#faba23;fill-opacity:1;fill-rule:nonzero;stroke:none"
           d="m 16300,6277.63 -543.2,267.46 c -14,-28.5 -28,-56.91 -42,-85.41 -20.4,-41.28 85.5,-134.95 236.2,-209.24 150.9,-74.3 289.7,-101.06 310,-59.79 1.8,3.82 39,86.98 39,86.98" /></g><g
         transform="scale(1.15231)"
         id="g712"><path
           id="path714"
           style="fill:#fad332;fill-opacity:1;fill-rule:nonzero;stroke:none"
           d="m 16279.7,6263.44 c -20.3,-41.22 -158.9,-14.58 -309.5,59.62 -150.6,74.2 -256.3,167.74 -235.9,208.97 20.3,41.31 158.8,14.58 309.4,-59.62 150.7,-74.2 256.3,-167.75 236,-208.97" /></g><g
         transform="scale(1.09558)"
         id="g716"><path
           id="path718"
           style="fill:#faba23;fill-opacity:1;fill-rule:nonzero;stroke:none"
           d="m 16271.4,7654.05 -657.1,-106.7 c 5.6,-34.41 11.2,-68.92 16.8,-103.33 8.1,-49.92 162.6,-66.45 345.1,-36.78 182.4,29.57 323.8,94.11 315.7,144.13 -0.8,4.56 -20.5,102.68 -20.5,102.68" /></g><g
         transform="scale(1.09451)"
         id="g720"><path
           id="path722"
           style="fill:#fad332;fill-opacity:1;fill-rule:nonzero;stroke:none"
           d="m 16291.9,7656.58 c 8.1,-49.97 -133.4,-114.57 -316.1,-144.17 -182.6,-29.69 -337.2,-13.25 -345.3,36.73 -8.2,50.07 133.3,114.66 315.9,144.26 182.7,29.7 337.3,13.25 345.5,-36.82" /></g><path
         id="path724"
         style="fill:#e3eaff;fill-opacity:1;fill-rule:nonzero;stroke:none"
         d="M 10678.5,5967.7 H 6312.9 c -193.96,0 -351.21,157.2 -351.21,351.2 v 923.4 c 0,193.9 157.25,351.2 351.21,351.2 h 4365.6 c 194,0 351.2,-157.3 351.2,-351.2 v -923.4 c 0,-194 -157.2,-351.2 -351.2,-351.2" /><path
         id="path726"
         style="fill:#faba23;fill-opacity:1;fill-rule:nonzero;stroke:none"
         d="m 7535.99,7009.3 v -457.4 c 0,-123.3 -99.9,-223.2 -223.2,-223.2 h -865 c -45.4,0 -87.7,13.6 -123,37 -60.3,39.9 -100.1,108.4 -100.1,186.2 v 457.4 c 0,123.3 99.9,223.2 223.1,223.2 h 865 c 50.3,0 96.8,-16.7 134.1,-44.9 54.1,-40.6 89.1,-105.4 89.1,-178.3" /><path
         id="path728"
         style="fill:#95a6db;fill-opacity:1;fill-rule:nonzero;stroke:none"
         d="M 9299.12,6594.5 H 7863.77 c -102.75,0 -186.06,83.3 -186.06,186.1 0,102.7 83.31,186 186.06,186 h 1435.35 c 102.76,0 186.07,-83.3 186.07,-186 0,-102.8 -83.31,-186.1 -186.07,-186.1" /><path
         id="path730"
         style="fill:#4ead60;fill-opacity:1;fill-rule:nonzero;stroke:none"
         d="m 10580.7,6594.5 h -719.28 c -102.76,0 -186.06,83.3 -186.06,186.1 0,102.7 83.3,186 186.06,186 h 719.28 c 102.7,0 186,-83.3 186,-186 0,-102.8 -83.3,-186.1 -186,-186.1" /><path
         id="path732"
         style="fill:#fad332;fill-opacity:1;fill-rule:nonzero;stroke:none"
         d="m 7446.89,7187.6 -1122.1,-821.9 c -60.3,39.9 -100.1,108.4 -100.1,186.2 v 457.4 c 0,123.3 99.9,223.2 223.1,223.2 h 865 c 50.3,0 96.8,-16.7 134.1,-44.9" /><path
         id="path734"
         style="fill:#e62552;fill-opacity:1;fill-rule:nonzero;stroke:none"
         d="m 7245.77,6585.9 c 0,-82.9 -67.19,-150.1 -150.08,-150.1 -82.9,0 -150.08,67.2 -150.08,150.1 0,82.9 67.18,150.1 150.08,150.1 82.89,0 150.08,-67.2 150.08,-150.1" /><path
         id="path736"
         style="fill:#95a6db;fill-opacity:1;fill-rule:nonzero;stroke:none"
         d="m 7423.99,6585.9 c 0,-82.9 -67.19,-150.1 -150.08,-150.1 -82.88,0 -150.09,67.2 -150.09,150.1 0,82.9 67.21,150.1 150.09,150.1 82.89,0 150.08,-67.2 150.08,-150.1" /><g
         transform="scale(1.44316)"
         id="g738"><path
           id="path740"
           style="fill:#020205;fill-opacity:1;fill-rule:nonzero;stroke:none"
           d="m 16159,5982.84 c 60.4,189.24 45.6,372.87 -87.2,496.49 -134.6,125.28 -350.4,85.99 -350.4,85.99 0,0 -151,98.39 -340.2,-30.49 -189.3,-128.88 -111,-301.15 -201,-406.61 -53.4,-62.5 -241.3,-32.84 -249.4,-276.2 -2.3,-70.19 67.3,-134.49 134.3,-155.35 117.8,-36.66 248.4,-12.75 277.8,-75.11 101.4,-214.26 490.8,-220.84 574,-93.34 25.8,39.56 324.3,-120.71 363.4,181.47 19.7,153.14 -175.4,104.01 -121.3,273.15" /></g><g
         transform="scale(1.42323)"
         id="g742"><path
           id="path744"
           style="fill:#f37a50;fill-opacity:1;fill-rule:nonzero;stroke:none"
           d="m 15603.2,6142 c -24.9,-236.22 105.4,-443.57 291,-463.1 185.5,-19.53 356.1,156.19 380.9,392.42 24.9,236.29 -105.4,443.64 -290.9,463.17 -185.6,19.53 -356.1,-156.2 -381,-392.49" /></g><g
         transform="scale(1.41811)"
         id="g746"><path
           id="path748"
           style="fill:#000000;fill-opacity:1;fill-rule:nonzero;stroke:none"
           d="m 16233.2,6064.27 c 2.1,-17.84 18.4,-30.54 36.3,-28.35 17.8,2.18 30.5,18.48 28.3,36.32 -2.2,17.84 -18.4,30.53 -36.3,28.34 -17.8,-2.18 -30.5,-18.47 -28.3,-36.31" /></g><g
         transform="scale(1.39578)"
         id="g750"><path
           id="path752"
           style="fill:#000000;fill-opacity:1;fill-rule:nonzero;stroke:none"
           d="m 16226.5,6187.51 c 2.4,-19.63 20.3,-33.6 39.9,-31.16 19.6,2.36 33.6,20.27 31.2,39.9 -2.4,19.63 -20.2,33.6 -39.9,31.17 -19.7,-2.44 -33.6,-20.28 -31.2,-39.91" /></g><g
         transform="scale(1.39587)"
         id="g754"><path
           id="path756"
           style="fill:#020205;fill-opacity:1;fill-rule:nonzero;stroke:none"
           d="m 16198.1,6228.25 c 2.7,0.36 5.3,1.58 7.3,3.66 29.9,30.59 78.1,21.49 78.6,21.42 6.8,-1.37 13.3,3.01 14.6,9.74 1.4,6.73 -3,13.32 -9.7,14.69 -2.5,0.5 -61.8,11.96 -101.2,-28.45 -4.9,-4.87 -4.8,-12.75 0.1,-17.55 2.9,-2.79 6.7,-3.94 10.3,-3.51" /></g><g
         transform="scale(1.42058)"
         id="g758"><path
           id="path760"
           style="fill:#020205;fill-opacity:1;fill-rule:nonzero;stroke:none"
           d="m 16287.5,6074.57 c 1.4,0.15 2.6,0.5 3.9,1.13 6.1,2.96 8.6,10.28 5.6,16.33 -22.8,47.24 -71.3,48.15 -73.4,48.15 -6.7,0.07 -12.2,-5.35 -12.3,-12.1 -0.1,-6.76 5.4,-12.25 12.1,-12.32 1.6,-0.07 35.6,-1.2 51.6,-34.43 2.4,-4.78 7.5,-7.39 12.5,-6.76" /></g><g
         transform="scale(1.41165)"
         id="g762"><path
           id="path764"
           style="fill:#de623c;fill-opacity:1;fill-rule:nonzero;stroke:none"
           d="m 16263.9,6032.02 c 10.8,-23.45 19.3,-46.61 31.8,-62.48 4.3,-5.39 3.5,-13.25 -1.7,-17.71 -21.2,-18.56 -66,-24.16 -93,-25.79 -3.9,-0.28 -5.1,5.17 -1.4,6.66 30.8,12.33 46.3,24.02 53.6,30.81 3.6,3.48 5.2,8.36 4.6,13.25 -1.4,11.27 -4.2,34.15 -5,52.57 -0.3,6.37 8.4,8.42 11.1,2.69" /></g><g
         transform="scale(1.40384)"
         id="g766"><path
           id="path768"
           style="fill:#ffffff;fill-opacity:1;fill-rule:nonzero;stroke:none"
           d="m 16100.4,5957.23 c -2.6,8.33 6,15.67 13.8,11.83 19.8,-9.77 52.9,-25.29 85.6,-36.83 32.7,-11.54 68.1,-20.31 89.7,-25.15 8.5,-1.92 10.5,-12.96 3.3,-17.88 -22.2,-14.88 -64.1,-34.69 -114.3,-17.02 -50,17.73 -70.3,59.48 -78.1,85.05" /></g><g
         transform="scale(1.41851)"
         id="g770"><path
           id="path772"
           style="fill:#020205;fill-opacity:1;fill-rule:nonzero;stroke:none"
           d="m 15657.8,6183.32 c 214.5,-44.97 574.9,62.39 636.4,161.16 5.8,142.68 -182.4,282.06 -322.7,264.57 -140.3,-17.48 -343.3,-233.13 -313.7,-425.73" /></g><g
         transform="scale(1.47272)"
         id="g774"><path
           id="path776"
           style="fill:#de623c;fill-opacity:1;fill-rule:nonzero;stroke:none"
           d="m 15689.7,5338.54 c 212.7,-53.1 576.2,-550.13 610.3,-922.78 -116.7,-24.1 -250.1,68.92 -250.1,68.92 l -288.9,415.63 -71.3,438.23" /></g><g
         transform="scale(1.44646)"
         id="g778"><path
           id="path780"
           style="fill:#f37a50;fill-opacity:1;fill-rule:nonzero;stroke:none"
           d="m 16184,1094.53 116,456.84 -287.8,39.62 c -9.9,-216.05 -26.1,-428.77 -24.6,-486.36 l 196.4,-10.1" /></g><g
         transform="scale(1.37523)"
         id="g782"><path
           id="path784"
           style="fill:#f37a50;fill-opacity:1;fill-rule:nonzero;stroke:none"
           d="m 16300,1676.16 h -316 c 10.3,-75.77 51.8,-485.81 51.8,-485.81 26.7,-60.64 262.2,-46.83 262.2,-12.73 -17.8,73.88 0.5,489.09 2,498.54" /></g><g
         transform="scale(1.46336)"
         id="g786"><path
           id="path788"
           style="fill:#c4204a;fill-opacity:1;fill-rule:nonzero;stroke:none"
           d="m 15804,1398.7 292.9,-43.25 203.1,1214.6 c -41.8,461 -447.6,1441.62 -447.6,1441.62 l -457.4,-160.18 -11.1,-432.5 550.8,-932.58 c -71.8,-180.34 -120.9,-763.45 -130.7,-1087.71" /></g><g
         transform="scale(1.40013)"
         id="g790"><path
           id="path792"
           style="fill:#e62552;fill-opacity:1;fill-rule:nonzero;stroke:none"
           d="m 16281.1,4158.83 c -4.4,29.79 -5.9,39.07 -30.7,53.92 l -459,130.28 -109.3,-107.92 c -103.5,-375.75 -39.4,-898.42 42.2,-1313.24 -119.5,-358.96 -72.7,-1099.04 -24.6,-1446.86 h 326.5 c 18.9,232.48 13,663.79 14.4,872.13 42.3,167.41 83.1,345.97 119.5,533.81 46.6,239.98 104.9,472.45 121,690.15 14.5,206.41 18.9,427.82 0,587.73" /></g><g
         transform="scale(1.36055)"
         id="g794"><path
           id="path796"
           style="fill:#f37a50;fill-opacity:1;fill-rule:nonzero;stroke:none"
           d="m 16158.8,5837.58 c -111,-72.84 -579.2,-681.85 -321.2,-1183.49 11.9,-6.62 218.5,343.46 218.5,343.46 l 243.9,482.82 -141.2,357.21" /></g><g
         transform="scale(1.39836)"
         id="g798"><path
           id="path800"
           style="fill:#f37a50;fill-opacity:1;fill-rule:nonzero;stroke:none"
           d="m 15950.6,5988.03 285.3,-162.05 c 0,0 25.3,-115.56 38,-153.03 26.1,-77.38 -73.9,-111.13 -158.3,-63.01 -84.5,48.13 -139.2,112.57 -139.2,112.57 l -25.8,265.52" /></g><g
         transform="scale(1.42927)"
         id="g802"><path
           id="path804"
           style="fill:#3f964f;fill-opacity:1;fill-rule:nonzero;stroke:none"
           d="m 16300,4033.88 c 0,0 -115.2,-136.44 -134.7,-146.65 l -103.2,112.64 -0.7,-1.89 -24.5,-64.43 -28.6,-75.36 c -23.9,0 -743.4,161.2 -743.4,161.2 1.5,64.86 62.4,274.9 161.2,498.58 -24,189.47 -1,386.35 -8.5,495.57 58.1,292.88 16.6,405.38 -35.8,543.35 l 182.6,53.95 328.5,-115.87 24.5,79.2 c 0,0 206,-49.39 249.3,-73.32 l 77.8,-324.85 -16.8,-690.14 c 0,0 25.8,-277.84 72.3,-451.98" /></g><g
         transform="scale(1.39358)"
         id="g806"><path
           id="path808"
           style="fill:#0e6a41;fill-opacity:1;fill-rule:nonzero;stroke:none"
           d="m 16028.1,5792 -132,-56.04 c 13.9,-158.59 368.7,-253.31 368.7,-253.31 l 35.2,152.99 -271.9,156.36" /></g><g
         transform="scale(1.41023)"
         id="g810"><path
           id="path812"
           style="fill:#0e6a41;fill-opacity:1;fill-rule:nonzero;stroke:none"
           d="m 16107.5,5569.08 103.2,-114.66 c 0,0 89.3,92.32 57,149.34 -32.4,57.08 -150.6,95.58 -150.6,95.58 l -9.6,-130.26" /></g><g
         transform="scale(1.47668)"
         id="g814"><path
           id="path816"
           style="fill:#2c2858;fill-opacity:1;fill-rule:nonzero;stroke:none"
           d="m 15784.2,1079.38 c 29.5,77.4 92.5,86.01 92.5,86.01 122.5,-163.41 423.3,-63.12 413.3,-284.157 -457.4,2.844 -647.6,0 -647.6,0 0.7,50.79 9.7,171.267 20.3,218.397 l 23.8,-4.2 97.7,-16.05" /></g><g
         transform="scale(1.4758)"
         id="g818"><path
           id="path820"
           style="fill:#2c2858;fill-opacity:1;fill-rule:nonzero;stroke:none"
           d="m 16273.2,822.74 h -594.7 c -14.8,0 -26.8,11.991 -26.8,26.697 v 38.419 h 648.3 v -38.419 c 0,-14.706 -12,-26.697 -26.8,-26.697" /></g><g
         transform="scale(1.40835)"
         id="g822"><path
           id="path824"
           style="fill:#0e6a41;fill-opacity:1;fill-rule:nonzero;stroke:none"
           d="m 16300,4057.37 -24.9,-65.39 c -22.5,150.46 -106.5,780.34 -59,954.23 44.4,163.39 -11.2,335.58 -65,502.08 -13.1,40.76 -26.8,82.79 -38.4,123.62 l 16.3,4.69 16.4,4.61 c 11.5,-40.19 24.9,-82.01 38,-122.48 55.3,-171.26 112.4,-348.35 65.3,-521.46 -40.8,-150.11 21.8,-667.17 51.3,-879.9" /></g><g
         transform="scale(1.37981)"
         id="g826"><path
           id="path828"
           style="fill:#2c2858;fill-opacity:1;fill-rule:nonzero;stroke:none"
           d="m 16300,940.854 c 0,0 -39.3,146.616 -42.8,165.456 -3.9,21.38 -15.5,72.04 -17.8,97.99 -0.6,6.37 -68.1,47.68 -119.6,47.61 -69.8,-0.14 -133.4,-40.58 -134.7,-48.19 -8.3,-48.92 -8.5,-106.47 -21.8,-154.16 -9.9,-35.43 -36.9,-117.981 -36.9,-117.981 l 373.6,9.275" /></g><g
         transform="scale(1.38235)"
         id="g830"><path
           id="path832"
           style="fill:#2c2858;fill-opacity:1;fill-rule:nonzero;stroke:none"
           d="m 16270.1,950.485 c -9.2,-29.083 -122,4.484 -204.3,4.411 -69.1,0 -158.5,-26.766 -168.7,-16.347 -17.3,-30.53 -3.1,-93.755 -3.1,-93.755 0,0 72.1,-3.761 158.5,0 86.3,3.691 186.2,-1.808 223.8,9.331 23.7,39.717 -6.2,96.36 -6.2,96.36" /></g><g
         transform="scale(1.39206)"
         id="g834"><path
           id="path836"
           style="fill:#f37a50;fill-opacity:1;fill-rule:nonzero;stroke:none"
           d="m 16300,5038.38 c 0,0 -591.2,-592.65 -820.9,-489.64 -75.7,102.37 85.1,307.82 235.7,376.64 150,68.53 401.8,176.57 401.8,176.57 l 183.4,-63.57" /></g><g
         transform="scale(1.43973)"
         id="g838"><path
           id="path840"
           style="fill:#f9cd2d;fill-opacity:1;fill-rule:nonzero;stroke:none"
           d="m 15868.5,5066.16 237.5,183.3 c 5.1,3.95 11.7,5.55 18.1,4.44 l 161.8,-29.31 c 4.7,-0.77 14.1,-29.03 10.3,-31.81 l -161.4,-97.1 c -0.8,-0.56 -1.7,-0.9 -2.7,-1.04 l -253.9,-43.56 c -5.4,-0.62 -14,11.81 -9.7,15.08" /></g><g
         transform="scale(1.43955)"
         id="g842"><path
           id="path844"
           style="fill:#f9f93a;fill-opacity:1;fill-rule:nonzero;stroke:none"
           d="m 15882.7,5049.3 225.9,172.41 c 5.2,3.97 11.8,5.56 18.2,4.45 l 167.2,-28.2 c 4.5,-0.77 6,-6.74 2.3,-9.52 l -158.9,-120.52 c -0.8,-0.56 -1.7,-0.91 -2.7,-1.05 l -248.2,-27.15 c -5.3,-0.63 -8.1,6.25 -3.8,9.58" /></g><g
         transform="scale(1.43385)"
         id="g846"><path
           id="path848"
           style="fill:#f37a50;fill-opacity:1;fill-rule:nonzero;stroke:none"
           d="m 15640.6,4950.18 134,67.09 c 0,0 85,92.48 111.5,120.1 34,9.9 100.1,38.36 113.5,37.38 13.5,-0.98 36.2,-8.93 36.2,-8.93 l -77.5,-60.67 c 0,0 31.6,-14.58 75.9,3.14 44.4,17.71 127,72.11 158.9,52.58 10.1,-13.04 10.1,-13.04 10.1,-13.04 0,0 28,21.69 44.8,6.7 52,-46.38 -283.4,-246.26 -283.4,-246.26 l -139.7,-16.74 -184.3,58.65" /></g><g
         transform="scale(1.42596)"
         id="g850"><path
           id="path852"
           style="fill:#f9cd2d;fill-opacity:1;fill-rule:nonzero;stroke:none"
           d="m 16286.9,5234.08 c -9.5,-6.53 -21.3,-5.82 -26.3,1.54 -5,7.36 -1.4,18.58 8.1,25.03 9.5,6.53 21.3,5.83 26.3,-1.54 5,-7.29 1.4,-18.51 -8.1,-25.03" /></g><g
         transform="scale(1.47272)"
         id="g854"><path
           id="path856"
           style="fill:#de623c;fill-opacity:1;fill-rule:nonzero;stroke:none"
           d="m 16300,4415.76 c 0,0 -289.7,-331.22 -491.3,-378 -12,66.33 -23.1,117.19 -23.1,117.19 l 274.9,361.85 239.5,-101.04" /></g><g
         transform="scale(1.43221)"
         id="g858"><path
           id="path860"
           style="fill:#de623c;fill-opacity:1;fill-rule:nonzero;stroke:none"
           d="m 16218.2,4133.27 c 1,2.93 2.6,5.51 4.3,7.89 l -1.5,0.42 c -29.4,9.77 -47.6,34.84 -40.5,55.92 1.1,3.49 2.9,6.57 5.1,9.36 -15.5,12.08 -23.4,29.12 -18.4,44.2 2,6 5.9,10.96 10.9,14.87 -16.3,11.1 -24.7,29.6 -19.1,46.43 7,21.09 33.1,31.49 58.2,23.11 25.1,-8.31 39.8,-32.19 32.7,-53.27 -1.7,-5.38 -4.7,-10.06 -8.6,-13.83 24.5,-11.38 38.8,-33.58 32.4,-52.71 -1.1,-3.42 -2.9,-6.57 -5.2,-9.36 15.7,-12.08 23.5,-29.11 18.4,-44.2 -1.8,-5.51 -5.2,-10.26 -9.8,-14.03 15,-9.15 22.9,-25.49 17.9,-40.29 -5.9,-17.87 -27.9,-26.6 -49.1,-19.55 -21.2,7.05 -33.6,27.23 -27.7,45.04" /></g><g
         transform="scale(1.37155)"
         id="g862"><path
           id="path864"
           style="fill:#f37a50;fill-opacity:1;fill-rule:nonzero;stroke:none"
           d="m 16263.9,6358.52 c 36.1,-56.36 28,-125.99 -18.1,-155.52 -46.1,-29.53 -112.8,-7.8 -148.9,48.56 -36.1,56.36 -28,125.99 18.1,155.52 46.2,29.53 112.8,7.8 148.9,-48.56" /></g><g
         transform="scale(1.36609)"
         id="g866"><path
           id="path868"
           style="fill:#de623c;fill-opacity:1;fill-rule:nonzero;stroke:none"
           d="m 16253.5,6261.37 c 2.1,0.22 4.3,1.02 6.3,2.34 28.3,18.74 40.2,46.77 32,75.03 -8.4,28.91 -35.4,50.36 -64.3,50.95 -8.1,0.22 -14.8,-6.22 -15,-14.35 -0.1,-8.13 6.3,-14.86 14.4,-15.01 15.8,-0.36 31.9,-13.39 36.6,-29.79 4.7,-15.74 -2.4,-30.74 -19.9,-42.38 -6.8,-4.47 -8.7,-13.62 -4.1,-20.35 3.1,-4.83 8.6,-7.11 14,-6.44" /></g><path
         id="path870"
         style="fill:#ffffff;fill-opacity:1;fill-rule:nonzero;stroke:none"
         d="m 2939.9,5539.7 c 195.87,-358.2 64.27,-807.3 -293.93,-1003.2 -358.2,-195.9 -807.37,-64.3 -1003.23,293.9 -195.86,358.2 -64.27,807.4 293.93,1003.3 358.19,195.8 807.36,64.2 1003.23,-294" /><path
         id="path872"
         style="fill:#e3eaff;fill-opacity:1;fill-rule:nonzero;stroke:none"
         d="m 2524.29,4660.2 -67.56,123.6 c -71.6,-37.6 -157.03,-55.7 -216.56,-48.5 l -15.46,98 c 60.08,-5.3 136.39,6.2 204.89,43.7 86.85,47.5 118.13,129.7 80.01,199.5 -36.78,67.2 -107.23,82.7 -217.8,69.9 -151.52,-19.3 -259.34,-5.1 -317.53,101.3 -55.52,101.5 -25.49,218 77.01,297.9 l -67.55,123.5 75.84,41.5 64.87,-118.7 c 74.73,37.7 135.58,45.6 182.42,44.2 l 13.56,-97.5 c -33.71,0.7 -98.57,0.2 -176.85,-42.7 -94.19,-51.4 -98.89,-127.1 -72.13,-176 34.78,-63.6 97.42,-70.7 227.91,-56.5 154.08,17.5 252.46,-11.3 311.98,-120.2 52.84,-96.6 35.06,-223.9 -79.55,-313.6 l 69.56,-127.2 -77.06,-42.2" /><g
         transform="scale(1.61856)"
         id="g874"><path
           id="path876"
           style="fill:#ffffff;fill-opacity:1;fill-rule:nonzero;stroke:none"
           d="m 16191.6,4813.85 c -108.4,-227.73 -380.9,-324.48 -608.7,-216.12 -227.7,108.37 -324.4,380.9 -216.1,608.63 108.4,227.74 380.9,324.55 608.7,216.18 227.7,-108.43 324.5,-380.89 216.1,-608.69" /></g><g
         transform="scale(1.58982)"
         id="g878"><path
           id="path880"
           style="fill:#e3eaff;fill-opacity:1;fill-rule:nonzero;stroke:none"
           d="m 15882.8,4788.46 38.1,79.95 c -45.5,22.64 -86.3,59.5 -104.6,92.52 l 44.3,43.97 c 19.4,-32.58 53.4,-67.18 97.8,-88.25 56.2,-26.79 109.7,-12.39 131.1,32.71 20.7,43.59 2.7,85.17 -44.6,136.81 -65.7,70.13 -98.3,130.26 -65.4,199.14 31.2,65.73 101.7,93.4 180.2,70.57 l 38,80.01 49.1,-23.4 -36.6,-76.8 c 46.8,-24.15 73.3,-52.27 89.8,-76.68 l -44.7,-42.83 c -12.1,17.42 -36.3,50.26 -86.9,74.41 -61,29 -101.3,3.52 -116.4,-28.18 -19.5,-41.14 0,-75.67 55.3,-136.99 65.7,-72.02 87.3,-132.78 53.8,-203.3 -29.8,-62.52 -101.3,-100.39 -189.2,-75.04 l -39.2,-82.33 -49.9,23.71" /></g><g
         transform="scale(1.47415)"
         id="g882"><path
           id="path884"
           style="fill:#d4deff;fill-opacity:1;fill-rule:nonzero;stroke:none"
           d="m 16188.3,10380.2 c 111.7,-253.5 -3.3,-549.46 -256.7,-661.09 -253.5,-111.63 -549.4,3.33 -661.1,256.78 -111.6,253.41 3.3,549.41 256.9,661.01 253.4,111.7 549.4,-3.3 660.9,-256.7" /></g><g
         transform="scale(1.44461)"
         id="g886"><path
           id="path888"
           style="fill:#ffffff;fill-opacity:1;fill-rule:nonzero;stroke:none"
           d="m 16180.7,10010.3 -39.3,89.2 c -51.6,-21.6 -111.6,-29.1 -152.3,-20.6 l -4.8,68.5 c 41.1,-7.2 94.4,-3.8 143.9,18 62.7,27.7 89.1,82.5 66.9,132.9 -21.4,48.5 -69,63.4 -146,61.1 -105.7,-4.3 -179.2,11.8 -213,88.6 -32.4,73.3 -4.7,151.9 70.7,200.9 l -39.3,89.2 54.8,24.1 37.7,-85.6 c 53.8,21.6 96.2,23.4 128.4,19.6 l 3.6,-68 c -23.2,2.5 -68,5.9 -124.5,-19 -68,-29.9 -75.7,-81.8 -60.1,-117.1 20.2,-46 63,-54.5 153.8,-52.5 107.3,3 173.5,-22.7 208.1,-101.3 30.7,-69.8 10.9,-156.5 -73.5,-211.6 l 40.5,-91.8 -55.6,-24.6" /></g><path
         id="path890"
         style="fill:#d4deff;fill-opacity:1;fill-rule:nonzero;stroke:none"
         d="m 916.688,10706.2 487.992,910.3 c 0,0 595.32,-50.9 868.57,-740.8 169.38,-427.6 744.27,-649.4 744.27,-649.4 l -490.59,-915.2 c 0,0 -750.46,200.9 -935.83,693 -196.04,520.4 -674.412,702.1 -674.412,702.1" /><path
         id="path892"
         style="fill:#e3eaff;fill-opacity:1;fill-rule:nonzero;stroke:none"
         d="m 2254.17,10151 c -161.78,-136 -421.55,-93.2 -580.21,95.5 -158.65,188.8 -156.11,452 5.67,588 161.78,136 421.55,93.2 580.2,-95.5 158.66,-188.8 156.12,-452 -5.66,-588" /><g
         transform="scale(1.35798)"
         id="g894"><path
           id="path896"
           style="fill:#d4deff;fill-opacity:1;fill-rule:nonzero;stroke:none"
           d="m 14927.5,12235.4 -505.8,568 c 0,0 186,398.7 732.3,412.9 338.5,8.8 637.5,350.1 637.5,350.1 l 508.5,-571.1 c 0,0 -329,-468 -716.2,-471.5 -409.5,-3.7 -656.3,-288.4 -656.3,-288.4" /></g><g
         transform="scale(1.30826)"
         id="g898"><path
           id="path900"
           style="fill:#e3eaff;fill-opacity:1;fill-rule:nonzero;stroke:none"
           d="m 16245,13514.3 c 55,-151.9 -44,-327.1 -221.2,-391.3 -177.2,-64.3 -365.5,6.8 -420.5,158.7 -55.1,151.8 43.9,327 221.1,391.3 177.2,64.2 365.5,-6.9 420.6,-158.7" /></g><g
         transform="scale(1.62733)"
         id="g902"><path
           id="path904"
           style="fill:#d4deff;fill-opacity:1;fill-rule:nonzero;stroke:none"
           d="m 15229.2,3103.19 68.9,513.3 c 0,0 288.5,80.87 538.2,-194.92 154.7,-170.96 463.7,-173.97 463.7,-173.97 l -69.3,-516 c 0,0 -387.6,-37.73 -561.3,160.69 -183.6,209.8 -440.2,210.9 -440.2,210.9" /></g><g
         transform="scale(1.59806)"
         id="g906"><path
           id="path908"
           style="fill:#e3eaff;fill-opacity:1;fill-rule:nonzero;stroke:none"
           d="m 16247,3134.3 c -52.9,-93.99 -184.8,-120.15 -294.5,-58.32 -109.7,61.82 -155.6,188.1 -102.7,282.15 53,93.99 184.9,120.08 294.6,58.26 109.6,-61.76 155.6,-188.1 102.6,-282.09" /></g><path
         id="path910"
         style="fill:#d4deff;fill-opacity:1;fill-rule:nonzero;stroke:none"
         d="m 13985.8,12742.1 -115.8,862.6 c 0,0 -484.8,135.9 -904.4,-327.6 -260.1,-287.3 -779.4,-292.3 -779.4,-292.3 l 116.5,-867.2 c 0,0 651.5,-63.5 943.3,269.9 308.6,352.7 739.8,354.6 739.8,354.6" /><path
         id="path912"
         style="fill:#e3eaff;fill-opacity:1;fill-rule:nonzero;stroke:none"
         d="m 12766.3,12699.6 c 87.4,-155.2 305,-198.2 486.1,-96.2 181,102 256.8,310.4 169.4,465.6 -87.4,155.1 -305.1,198.2 -486.1,96.2 -181,-102 -256.8,-310.5 -169.4,-465.6" /><path
         id="path914"
         style="fill:#e3eaff;fill-opacity:1;fill-rule:nonzero;stroke:none"
         d="M 10678.5,3997.9 H 6312.9 c -193.96,0 -351.21,157.2 -351.21,351.2 v 923.3 c 0,194 157.25,351.2 351.21,351.2 h 4365.6 c 194,0 351.2,-157.2 351.2,-351.2 v -923.3 c 0,-194 -157.2,-351.2 -351.2,-351.2" /><path
         id="path916"
         style="fill:#d6224c;fill-opacity:1;fill-rule:nonzero;stroke:none"
         d="M 7535.99,5039.4 V 4582 c 0,-123.3 -99.9,-223.2 -223.2,-223.2 h -865 c -45.4,0 -87.7,13.6 -123,37 -60.3,39.9 -100.1,108.4 -100.1,186.2 v 457.4 c 0,123.3 99.9,223.2 223.1,223.2 h 865 c 50.3,0 96.8,-16.7 134.1,-44.9 54.1,-40.6 89.1,-105.4 89.1,-178.3" /><path
         id="path918"
         style="fill:#95a6db;fill-opacity:1;fill-rule:nonzero;stroke:none"
         d="M 9299.12,4624.7 H 7863.77 c -102.75,0 -186.06,83.3 -186.06,186 0,102.8 83.31,186.1 186.06,186.1 h 1435.35 c 102.76,0 186.07,-83.3 186.07,-186.1 0,-102.7 -83.31,-186 -186.07,-186" /><path
         id="path920"
         style="fill:#4ead60;fill-opacity:1;fill-rule:nonzero;stroke:none"
         d="m 10580.7,4624.7 h -719.28 c -102.76,0 -186.06,83.3 -186.06,186 0,102.8 83.3,186.1 186.06,186.1 h 719.28 c 102.7,0 186,-83.3 186,-186.1 0,-102.7 -83.3,-186 -186,-186" /><path
         id="path922"
         style="fill:#e62552;fill-opacity:1;fill-rule:nonzero;stroke:none"
         d="m 7446.89,5217.7 -1122.1,-821.9 c -60.3,39.9 -100.1,108.4 -100.1,186.2 v 457.4 c 0,123.3 99.9,223.2 223.1,223.2 h 865 c 50.3,0 96.8,-16.7 134.1,-44.9" /><path
         id="path924"
         style="fill:#fac832;fill-opacity:1;fill-rule:nonzero;stroke:none"
         d="m 7245.77,4616 c 0,-82.8 -67.19,-150 -150.08,-150 -82.9,0 -150.08,67.2 -150.08,150 0,82.9 67.18,150.1 150.08,150.1 82.89,0 150.08,-67.2 150.08,-150.1" /><path
         id="path926"
         style="fill:#95a6db;fill-opacity:1;fill-rule:nonzero;stroke:none"
         d="m 7423.99,4616 c 0,-82.8 -67.19,-150 -150.08,-150 -82.88,0 -150.09,67.2 -150.09,150 0,82.9 67.21,150.1 150.09,150.1 82.89,0 150.08,-67.2 150.08,-150.1" /><path
         id="path928"
         style="fill:#e3eaff;fill-opacity:1;fill-rule:nonzero;stroke:none"
         d="M 10678.5,2028 H 6312.9 c -193.96,0 -351.21,157.3 -351.21,351.2 v 923.4 c 0,194 157.25,351.2 351.21,351.2 h 4365.6 c 194,0 351.2,-157.2 351.2,-351.2 v -923.4 c 0,-193.9 -157.2,-351.2 -351.2,-351.2" /><path
         id="path930"
         style="fill:#faba23;fill-opacity:1;fill-rule:nonzero;stroke:none"
         d="m 7535.99,3069.6 v -457.4 c 0,-123.3 -99.9,-223.2 -223.2,-223.2 h -865 c -45.4,0 -87.7,13.6 -123,37 -60.3,39.9 -100.1,108.4 -100.1,186.2 v 457.4 c 0,123.3 99.9,223.2 223.1,223.2 h 865 c 50.3,0 96.8,-16.7 134.1,-44.9 54.1,-40.6 89.1,-105.4 89.1,-178.3" /><path
         id="path932"
         style="fill:#95a6db;fill-opacity:1;fill-rule:nonzero;stroke:none"
         d="M 9299.12,2654.8 H 7863.77 c -102.75,0 -186.06,83.3 -186.06,186.1 0,102.8 83.31,186.1 186.06,186.1 h 1435.35 c 102.76,0 186.07,-83.3 186.07,-186.1 0,-102.8 -83.31,-186.1 -186.07,-186.1" /><path
         id="path934"
         style="fill:#4ead60;fill-opacity:1;fill-rule:nonzero;stroke:none"
         d="m 10580.7,2654.8 h -719.28 c -102.76,0 -186.06,83.3 -186.06,186.1 0,102.8 83.3,186.1 186.06,186.1 h 719.28 c 102.7,0 186,-83.3 186,-186.1 0,-102.8 -83.3,-186.1 -186,-186.1" /><path
         id="path936"
         style="fill:#fad332;fill-opacity:1;fill-rule:nonzero;stroke:none"
         d="M 7446.89,3247.9 6324.79,2426 c -60.3,39.9 -100.1,108.4 -100.1,186.2 v 457.4 c 0,123.3 99.9,223.2 223.1,223.2 h 865 c 50.3,0 96.8,-16.7 134.1,-44.9" /><path
         id="path938"
         style="fill:#e62552;fill-opacity:1;fill-rule:nonzero;stroke:none"
         d="m 7245.77,2646.2 c 0,-82.9 -67.19,-150.1 -150.08,-150.1 -82.9,0 -150.08,67.2 -150.08,150.1 0,82.9 67.18,150.1 150.08,150.1 82.89,0 150.08,-67.2 150.08,-150.1" /><path
         id="path940"
         style="fill:#95a6db;fill-opacity:1;fill-rule:nonzero;stroke:none"
         d="m 7423.99,2646.2 c 0,-82.9 -67.19,-150.1 -150.08,-150.1 -82.88,0 -150.09,67.2 -150.09,150.1 0,82.9 67.21,150.1 150.09,150.1 82.89,0 150.08,-67.2 150.08,-150.1" /></g></g></svg>
